<?xml version="1.0" standalone="no"?>
<!DOCTYPE svg PUBLIC "-//W3C//DTD SVG 20010904//EN"
 "http://www.w3.org/TR/2001/REC-SVG-20010904/DTD/svg10.dtd">
<svg version="1.0" xmlns="http://www.w3.org/2000/svg"
 width="1024.000000pt" height="1024.000000pt" viewBox="0 0 1024.000000 1024.000000"
 preserveAspectRatio="xMidYMid meet">
<metadata>
Created by potrace 1.14, written by Peter Selinger 2001-2017
</metadata>
<g transform="translate(0.000000,1024.000000) scale(0.100000,-0.100000)"
fill="#000000" stroke="none">
<path d="M0 5120 l0 -5120 5120 0 5120 0 0 5120 0 5120 -5120 0 -5120 0 0
-5120z m4960 4895 c0 -13 -20 -15 -122 -13 -68 0 -107 3 -88 5 19 3 39 9 45
14 5 5 44 9 87 9 63 0 78 -3 78 -15z m-320 -15 c0 -6 -33 -9 -82 -8 -71 1 -77
2 -38 8 70 11 120 11 120 0z m640 -10 c0 -5 -18 -10 -40 -10 -22 0 -40 5 -40
10 0 6 18 10 40 10 22 0 40 -4 40 -10z m383 3 c-13 -2 -33 -2 -45 0 -13 2 -3
4 22 4 25 0 35 -2 23 -4z m-463 -33 c0 -6 60 -10 160 -10 153 0 160 -1 160
-20 0 -17 7 -20 40 -20 22 0 40 5 40 10 0 6 18 10 40 10 22 0 40 -4 40 -9 0
-5 36 -12 80 -16 58 -5 80 -11 80 -21 0 -18 76 -19 83 -1 4 8 14 3 31 -15 28
-31 46 -36 46 -13 0 11 11 15 40 15 22 0 40 -4 40 -10 0 -5 18 -10 40 -10 22
0 40 -4 40 -10 0 -5 18 -10 40 -10 22 0 40 -4 40 -10 0 -5 22 -10 49 -10 41 0
53 -4 69 -25 17 -21 28 -25 71 -25 48 0 51 -2 51 -25 0 -22 4 -25 39 -25 22 0
41 5 44 13 2 6 8 0 12 -15 6 -25 12 -28 51 -28 l44 0 0 -40 0 -40 -55 0 c-44
0 -55 3 -55 16 0 17 -22 14 -28 -4 -2 -7 3 -12 12 -12 9 0 16 -4 16 -10 0 -5
18 -10 40 -10 29 0 40 -4 40 -15 0 -11 11 -15 40 -15 l40 0 0 40 0 40 40 0
c38 0 40 -2 40 -30 0 -29 1 -30 47 -30 63 0 83 -19 83 -82 0 -47 1 -48 30 -48
31 0 41 16 15 26 -8 4 -15 17 -15 30 0 29 31 33 59 7 59 -55 71 -63 94 -63 25
0 87 -51 87 -71 0 -5 8 -9 18 -9 9 0 28 -12 41 -25 13 -14 31 -25 42 -25 10 0
22 -6 26 -13 4 -6 21 -19 37 -27 16 -8 45 -30 63 -48 19 -18 47 -35 64 -39 16
-3 29 -9 29 -14 0 -17 40 -49 60 -49 11 0 20 -4 20 -9 0 -5 11 -12 25 -15 15
-4 27 -16 31 -31 5 -20 12 -25 38 -25 34 0 87 -46 100 -88 8 -25 42 -48 48
-32 4 14 36 -10 40 -30 2 -8 20 -25 41 -38 20 -13 37 -26 38 -30 5 -44 28 -71
62 -72 9 0 22 -11 28 -23 6 -13 23 -31 39 -40 15 -9 37 -36 48 -59 12 -24 21
-37 22 -30 0 21 20 3 20 -19 0 -11 7 -19 16 -19 18 0 44 -23 44 -39 0 -6 6
-11 14 -11 20 0 40 -27 24 -32 -8 -3 -4 -13 15 -30 15 -14 27 -30 27 -37 0 -6
6 -11 14 -11 8 0 16 -7 20 -15 3 -8 10 -15 16 -15 5 0 10 7 10 15 0 8 5 15 10
15 6 0 10 7 10 15 0 13 11 15 57 13 34 -2 58 -8 61 -15 2 -8 -5 -13 -17 -13
-18 0 -21 -6 -21 -49 0 -42 5 -54 31 -80 17 -17 35 -31 40 -31 15 0 10 -42 -7
-54 -9 -7 -12 -18 -8 -29 7 -18 24 -23 24 -7 0 6 18 10 40 10 l40 0 0 -40 c0
-22 -4 -40 -10 -40 -5 0 -10 -7 -10 -15 0 -10 10 -15 30 -15 18 0 33 6 36 15
4 8 12 15 20 15 8 0 14 10 14 25 0 14 4 25 10 25 5 0 12 -11 16 -25 3 -14 12
-25 20 -25 8 0 14 -9 14 -19 0 -11 5 -23 10 -26 6 -3 10 -30 10 -60 0 -48 -2
-54 -22 -57 l-23 -3 23 -20 c12 -11 22 -24 22 -31 0 -6 9 -19 20 -29 11 -10
25 -36 31 -58 14 -52 30 -67 73 -67 25 0 36 -4 36 -15 0 -10 -10 -15 -31 -15
-31 0 -31 0 -15 -22 9 -13 19 -31 23 -40 3 -10 9 -18 14 -18 5 0 9 -7 9 -15 0
-8 9 -24 20 -35 12 -12 18 -25 15 -30 -3 -5 10 -32 29 -59 20 -27 38 -61 42
-75 3 -14 10 -26 15 -26 5 0 9 -23 9 -51 0 -46 2 -50 22 -47 29 4 68 -52 69
-101 0 -39 17 -91 18 -58 1 11 9 17 26 17 23 0 25 4 25 40 0 38 2 40 30 40
l30 0 0 -80 0 -80 -40 0 c-44 0 -49 -8 -21 -34 15 -13 20 -14 24 -4 3 7 6 -9
6 -35 1 -55 22 -111 46 -125 12 -6 19 -26 23 -63 2 -30 11 -62 19 -71 8 -9 16
-33 18 -53 2 -20 11 -45 19 -54 10 -11 16 -36 16 -69 0 -49 2 -52 25 -52 23 0
25 -4 25 -40 0 -22 5 -40 10 -40 6 0 10 -22 10 -48 0 -26 4 -52 10 -58 5 -5
13 -38 16 -72 l7 -62 37 0 36 0 12 -102 c7 -57 12 -147 12 -200 0 -91 1 -98
20 -98 18 0 20 -7 20 -80 l0 -80 -30 0 -30 0 0 -80 c0 -79 0 -80 25 -80 23 0
25 -4 25 -40 0 -29 4 -40 15 -40 11 0 15 12 16 43 1 41 2 40 9 -13 4 -30 10
-102 12 -160 2 -58 3 -88 1 -67 -2 20 -8 37 -14 37 -5 0 -9 18 -9 40 0 36 -2
40 -25 40 -25 0 -25 -1 -25 -80 0 -64 -3 -80 -15 -80 -13 0 -15 -33 -15 -240
0 -207 -2 -240 -15 -240 -11 0 -15 -11 -15 -40 0 -38 2 -40 30 -40 28 0 30 -3
30 -34 0 -19 5 -38 10 -41 6 -3 10 -42 10 -86 0 -64 -3 -79 -15 -79 -12 0 -15
-13 -15 -57 0 -32 -5 -65 -11 -73 -7 -10 -9 30 -6 135 2 83 2 115 0 73 l-4
-78 -39 0 -40 0 0 -80 0 -80 40 0 40 0 0 -40 c0 -22 -4 -40 -10 -40 -5 0 -10
-18 -10 -40 0 -33 -3 -40 -20 -40 -17 0 -20 -7 -20 -40 0 -22 -4 -40 -10 -40
-5 0 -10 -18 -10 -40 l0 -40 -40 0 -40 0 0 -40 c0 -22 5 -40 10 -40 6 0 10
-18 10 -40 0 -22 -4 -40 -10 -40 -5 0 -10 -11 -10 -24 0 -18 -6 -25 -22 -28
-21 -3 -24 -10 -32 -95 -9 -102 -26 -126 -26 -38 0 42 -3 55 -15 55 -9 0 -15
9 -15 25 0 16 6 25 15 25 12 0 15 15 14 83 -1 68 -3 74 -8 36 -4 -25 -16 -57
-28 -73 -16 -20 -20 -35 -16 -61 4 -28 2 -35 -11 -35 -9 0 -16 -7 -16 -15 0
-8 -7 -15 -16 -15 -13 0 -15 -10 -13 -47 2 -29 -6 -77 -20 -120 -17 -58 -26
-73 -41 -73 -17 0 -20 -7 -20 -50 0 -47 11 -63 25 -40 3 6 13 10 21 10 10 0
14 -12 14 -40 0 -33 -3 -40 -20 -40 -17 0 -20 -7 -20 -40 0 -38 -2 -40 -29
-40 -27 0 -30 4 -34 38 l-4 37 -1 -40 c-1 -90 -1 -89 -18 -74 -14 11 -18 10
-30 -6 -7 -11 -18 -25 -24 -32 -16 -19 -13 -83 5 -83 11 0 15 -12 15 -44 0
-26 -6 -48 -15 -56 -13 -11 -15 -6 -16 31 l0 44 -19 -42 c-10 -23 -28 -48 -39
-55 -14 -9 -21 -23 -21 -45 0 -18 -7 -36 -15 -41 -9 -4 -17 -19 -20 -33 -7
-37 -26 -79 -36 -79 -5 0 -9 -7 -9 -15 0 -8 -5 -15 -10 -15 -6 0 -16 -11 -22
-25 -6 -14 -18 -25 -26 -25 -10 0 -13 -10 -10 -40 2 -22 0 -40 -4 -40 -5 0 -8
-4 -8 -9 0 -12 -59 -71 -71 -71 -5 0 -9 -18 -9 -40 0 -36 -3 -40 -24 -40 -17
0 -26 -7 -30 -25 -4 -14 -11 -25 -16 -25 -6 0 -10 -13 -10 -30 0 -25 -6 -32
-37 -45 -45 -19 -93 -68 -93 -95 0 -11 -7 -20 -15 -20 -8 0 -15 -5 -15 -11 0
-7 -12 -23 -27 -36 -20 -19 -23 -27 -13 -33 10 -6 7 -14 -13 -33 -15 -13 -27
-29 -27 -36 0 -6 -7 -11 -15 -11 -8 0 -22 -18 -31 -40 -9 -22 -23 -40 -30 -40
-8 0 -17 -7 -20 -15 -3 -8 -14 -17 -25 -20 -10 -4 -19 -14 -19 -23 0 -10 -16
-31 -35 -47 -19 -17 -35 -36 -35 -42 0 -7 -11 -13 -24 -13 -27 0 -72 -40 -96
-84 -8 -16 -25 -32 -37 -37 -13 -5 -23 -14 -23 -22 0 -7 -20 -20 -45 -29 -38
-15 -45 -15 -45 -3 0 8 -7 15 -15 15 -11 0 -15 -11 -15 -40 l0 -40 -41 0 c-36
0 -40 -2 -37 -22 2 -18 11 -24 37 -28 42 -6 49 -20 19 -39 -16 -10 -23 -10
-26 -2 -2 6 -25 11 -53 11 l-49 0 0 -40 c0 -41 -21 -57 -34 -24 -4 11 -13 13
-28 8 -13 -3 -24 -11 -26 -15 -2 -5 -15 -9 -28 -9 -19 0 -24 -5 -24 -25 0 -22
-4 -25 -40 -25 -38 0 -40 -2 -40 -30 0 -28 -2 -30 -40 -30 -29 0 -40 -4 -40
-15 0 -8 -7 -15 -15 -15 -8 0 -15 -4 -15 -10 0 -5 -11 -10 -25 -10 -16 0 -25
-6 -25 -15 0 -8 -7 -15 -15 -15 -9 0 -18 -7 -21 -15 -4 -8 -15 -15 -25 -15
-10 0 -19 -4 -19 -10 0 -5 -4 -10 -9 -10 -5 0 -23 -14 -39 -30 -17 -17 -38
-30 -46 -30 -9 0 -16 -4 -16 -10 0 -5 -10 -10 -22 -10 -13 0 -31 -12 -42 -27
-19 -25 -19 -26 -1 -39 17 -13 17 -14 2 -14 -10 0 -29 7 -42 16 -23 15 -25 15
-25 0 0 -14 -14 -16 -94 -16 -66 0 -96 4 -100 13 -5 9 -7 9 -12 0 -3 -8 -26
-13 -60 -13 -51 0 -54 -1 -54 -25 0 -22 -4 -25 -40 -25 -33 0 -40 -3 -40 -20
0 -17 -7 -20 -40 -20 -22 0 -40 -4 -40 -10 0 -5 -18 -10 -40 -10 -22 0 -40 -4
-40 -10 0 -15 -78 -12 -83 3 -3 8 -10 7 -26 -7 -28 -25 -27 -36 4 -36 16 0 25
-6 25 -15 0 -11 -11 -15 -39 -15 -22 0 -41 4 -43 10 -4 14 -78 -10 -78 -26 0
-7 8 -18 18 -24 13 -8 3 -9 -43 -6 -33 3 -77 8 -97 11 -25 5 -38 3 -38 -4 0
-6 -17 -11 -40 -11 -29 0 -40 -4 -40 -15 0 -12 -16 -15 -80 -15 -47 0 -80 -4
-80 -10 0 -6 -47 -10 -120 -10 -103 0 -120 -2 -120 -16 0 -14 15 -15 120 -12
110 3 120 2 120 -14 0 -16 -11 -18 -119 -18 -78 0 -121 4 -123 11 -6 17 -69
19 -75 3 -3 -9 -20 -14 -44 -14 -37 0 -39 -2 -39 -32 l0 -31 -120 6 c-103 6
-120 5 -120 -8 0 -11 -11 -15 -40 -15 -36 0 -40 3 -40 25 l0 25 120 0 c100 0
120 3 120 15 0 13 -20 15 -120 15 -73 0 -120 -4 -120 -10 0 -6 -33 -10 -80
-10 -47 0 -80 -4 -80 -10 0 -5 -19 -11 -42 -12 l-43 -1 40 -7 c22 -4 6 -5 -35
-1 -41 3 -112 5 -157 3 -69 -2 -83 0 -83 13 0 8 -7 15 -15 15 -9 0 -18 7 -21
15 -5 11 -22 15 -65 15 -32 0 -59 4 -59 9 0 5 -36 12 -80 16 -44 4 -80 11 -80
16 0 5 -18 9 -40 9 -29 0 -40 -4 -40 -15 0 -23 -18 -18 -46 12 -17 19 -27 24
-31 16 -6 -15 -83 -18 -83 -3 0 6 -15 10 -32 10 -42 0 -78 10 -78 21 0 5 7 9
15 9 8 0 15 7 15 15 0 12 -16 15 -80 15 -47 0 -80 4 -80 10 0 6 -33 10 -80 10
-64 0 -80 3 -80 15 0 9 -9 15 -24 15 -13 0 -29 7 -36 15 -8 9 -30 15 -56 15
-40 0 -44 2 -44 25 0 19 -5 25 -22 25 -12 0 -30 7 -40 17 -17 15 -18 15 -18 0
0 -13 -9 -17 -40 -17 -22 0 -40 4 -40 9 0 12 -59 71 -71 71 -5 0 -9 5 -9 11 0
6 -14 24 -30 41 -17 16 -30 36 -30 44 0 8 -4 14 -10 14 -5 0 -10 -7 -10 -15 0
-8 -7 -15 -15 -15 -8 0 -15 -5 -15 -10 0 -6 7 -13 15 -16 8 -4 15 -17 15 -30
0 -19 -5 -24 -24 -24 -13 0 -26 7 -30 15 -3 8 -14 15 -25 15 -11 0 -28 11 -39
25 -23 28 -42 33 -42 9 0 -17 -22 -14 -28 4 -2 7 3 12 12 12 10 0 16 9 16 25
0 22 -4 25 -39 25 -22 0 -42 -6 -44 -12 -4 -9 -14 -4 -31 15 -19 20 -26 39
-26 68 0 21 -4 39 -10 39 -5 0 -10 -7 -10 -15 0 -17 -11 -18 -99 -9 -56 6 -61
9 -61 30 0 21 -5 24 -40 24 -38 0 -40 -1 -40 -32 0 -29 -1 -30 -18 -15 -10 10
-35 17 -56 17 -42 0 -46 21 -5 30 28 7 41 50 15 50 -9 0 -16 4 -16 9 0 5 -14
23 -31 40 -26 26 -38 31 -80 31 -48 0 -49 1 -49 31 0 34 -39 84 -77 100 -23 9
-32 29 -13 29 6 0 10 18 10 40 0 22 -4 40 -10 40 -5 0 -10 18 -10 40 0 38 -2
40 -30 40 -28 0 -30 -2 -30 -40 0 -36 2 -40 26 -40 31 0 28 -23 -4 -28 -15 -2
-22 2 -22 12 0 10 -9 16 -25 16 -22 0 -25 4 -25 40 0 29 -4 40 -15 40 -12 0
-15 14 -15 64 0 59 -2 64 -24 70 -13 3 -31 9 -40 12 -27 10 -20 -40 8 -55 19
-11 24 -24 29 -68 3 -30 11 -61 17 -68 6 -8 10 -28 8 -45 l-3 -32 -28 25 c-15
15 -27 33 -27 41 0 8 -5 18 -10 21 -5 3 -10 31 -10 61 0 39 -4 54 -14 54 -8 0
-16 -7 -20 -15 -7 -20 -46 -20 -46 0 0 8 -4 15 -9 15 -17 0 -71 61 -71 80 0
24 -56 80 -80 80 -19 0 -80 54 -80 71 0 5 -5 9 -11 9 -14 0 -69 55 -69 69 0 6
-4 11 -9 11 -17 0 -72 62 -67 75 3 8 -2 11 -15 8 -16 -5 -19 0 -19 36 0 34 -3
41 -20 41 -17 0 -20 7 -20 40 0 38 2 40 30 40 28 0 30 -2 30 -40 0 -33 3 -40
20 -40 11 0 20 -7 20 -15 0 -9 7 -18 15 -21 8 -4 15 -15 15 -25 0 -10 5 -19
10 -19 6 0 10 -6 10 -14 0 -8 7 -16 15 -20 8 -3 15 -15 15 -26 0 -15 7 -20 25
-20 20 0 25 -5 25 -25 0 -21 5 -25 29 -25 16 0 36 -7 45 -15 8 -8 17 -15 20
-15 8 0 66 -61 66 -71 0 -5 11 -9 25 -9 32 0 32 13 0 38 -14 11 -25 25 -25 31
0 6 -11 11 -23 11 -13 0 -35 12 -49 27 -14 16 -34 33 -44 40 -17 11 -17 12 9
12 32 1 35 21 6 39 -11 7 -29 32 -39 55 -17 39 -19 40 -19 15 -1 -35 -17 -36
-43 -3 -11 14 -25 25 -33 25 -7 0 -22 16 -34 35 -11 20 -27 38 -36 41 -10 4
-15 19 -15 45 0 44 -15 51 -43 19 -9 -11 -21 -20 -27 -20 -17 0 -11 42 7 55
17 13 17 14 0 32 -9 11 -17 29 -17 41 0 13 -6 22 -15 22 -11 0 -15 -11 -15
-40 0 -22 4 -40 9 -40 8 0 25 -120 17 -127 -2 -3 -18 9 -35 26 -23 23 -31 39
-31 66 0 25 -4 35 -16 35 -18 0 -74 53 -74 69 0 6 -3 11 -8 11 -8 0 -11 6 -51
84 -13 25 -34 55 -47 65 -17 14 -24 29 -24 55 0 29 -4 36 -19 36 -16 0 -18 5
-14 40 4 26 2 40 -6 40 -6 0 -11 -7 -11 -15 0 -8 -5 -15 -10 -15 -6 0 -13 7
-16 15 -4 8 -12 15 -20 15 -8 0 -14 9 -14 21 0 11 -7 27 -15 35 -9 9 -15 34
-15 60 0 24 -3 44 -7 44 -13 0 -43 60 -43 86 0 13 -4 24 -10 24 -5 0 -12 11
-16 25 -3 14 -10 25 -14 25 -5 0 -11 13 -15 30 -4 16 -11 32 -16 35 -5 4 -9
18 -9 33 0 15 -7 36 -15 46 -8 11 -15 37 -15 58 0 21 -4 38 -9 38 -5 0 -12 13
-16 30 -4 16 -11 32 -16 35 -5 4 -10 27 -10 53 l-1 47 -9 -55 c-4 -33 -4 -56
2 -58 12 -5 12 -52 -1 -52 -5 0 -10 10 -10 23 0 12 -7 31 -15 41 -17 22 -20
96 -5 96 6 0 10 18 10 40 0 36 -2 40 -25 40 -23 0 -25 -4 -26 -42 l-1 -43 -8
40 c-4 22 -4 41 1 43 5 2 9 21 9 43 0 28 4 39 15 39 11 0 15 11 15 40 0 29 -4
40 -15 40 -12 0 -15 14 -15 65 l0 65 -43 0 c-24 0 -48 5 -55 12 -18 18 -16 98
3 98 11 0 15 11 15 40 0 29 -4 40 -15 40 -11 0 -15 11 -15 40 0 29 -4 40 -15
40 -11 0 -15 11 -15 40 0 38 2 40 30 40 20 0 30 5 30 15 0 11 -11 15 -40 15
l-40 0 0 105 0 105 40 0 c29 0 40 4 40 15 0 11 -11 15 -40 15 -36 0 -40 3 -40
25 0 14 -4 25 -8 25 -13 0 -32 199 -25 267 3 34 0 113 -7 174 -10 86 -10 113
-1 118 9 6 13 83 17 281 2 159 8 277 14 280 5 3 17 111 25 240 9 130 20 236
25 238 6 2 10 21 10 43 0 27 4 39 14 39 10 0 16 21 21 76 4 41 4 78 1 81 -3 4
-6 -12 -6 -35 0 -38 -2 -42 -25 -42 -25 0 -25 -1 -25 -80 0 -63 -3 -80 -14
-80 -10 0 -16 14 -18 43 -2 23 -1 -67 1 -200 l3 -243 -41 0 -41 0 0 200 c0
171 2 200 15 200 11 0 15 11 15 40 0 22 5 40 10 40 6 0 10 18 10 40 0 22 5 40
10 40 6 0 10 18 10 40 0 32 4 40 18 40 16 0 20 15 32 118 7 64 19 126 26 137
8 11 14 30 14 42 0 14 6 23 15 23 11 0 15 11 15 40 0 22 5 40 10 40 6 0 10
-18 10 -40 0 -31 4 -40 17 -40 14 0 15 12 10 120 -4 74 -3 120 3 120 5 0 15
18 21 40 7 22 16 40 21 40 4 0 8 17 8 38 0 20 7 46 15 56 8 11 15 28 15 39 0
10 6 25 14 33 8 7 24 43 36 80 12 36 28 68 36 71 9 3 14 20 14 45 0 31 7 46
30 70 26 26 30 36 30 88 0 53 2 58 25 64 16 4 27 15 30 31 3 14 7 36 10 49 3
13 14 26 26 29 14 4 20 11 16 21 -3 8 3 26 14 39 10 14 19 30 19 36 0 6 5 11
10 11 6 0 10 7 10 16 0 9 6 14 13 11 14 -4 11 -100 -4 -105 -5 -2 -9 -13 -9
-23 0 -11 -11 -30 -23 -42 -17 -15 -26 -38 -30 -73 -6 -56 6 -90 23 -64 5 8
10 21 10 28 0 6 5 12 10 12 6 0 10 11 10 25 0 23 4 25 40 25 25 0 40 5 41 13
0 6 0 49 -1 95 -1 68 1 82 14 82 12 0 16 10 16 40 l0 40 40 0 40 0 0 40 c0 29
4 40 15 40 8 0 15 5 15 10 0 23 46 105 72 130 15 15 28 32 28 38 0 6 9 16 19
22 11 5 26 31 33 56 7 26 21 52 32 58 22 13 76 65 76 73 0 3 14 19 31 35 20
20 31 41 32 61 2 25 7 32 22 32 13 0 21 8 23 23 3 16 10 22 28 22 14 0 24 6
24 15 0 8 9 19 19 24 10 6 24 24 29 41 7 18 18 30 28 30 18 0 54 27 54 41 0 4
-12 10 -27 12 -22 3 -19 4 11 6 30 1 47 9 73 36 19 19 38 35 43 35 6 0 10 4
10 9 0 5 14 23 30 39 17 17 30 40 30 51 0 24 16 37 23 19 4 -9 14 -4 31 15 14
15 30 27 36 27 5 0 10 22 10 49 0 42 5 54 31 80 22 23 40 31 65 31 28 0 34 4
34 20 0 11 7 23 15 26 8 4 15 12 15 20 0 8 10 14 24 14 18 0 25 6 28 23 3 19
10 22 56 25 50 3 52 4 52 33 0 27 2 29 40 29 36 0 40 3 40 25 0 16 6 25 15 25
11 0 15 11 15 40 0 36 3 40 25 40 16 0 25 -6 25 -15 0 -11 11 -15 40 -15 29 0
40 4 40 15 0 8 6 15 14 15 8 0 16 7 20 15 3 8 15 15 26 15 11 0 20 5 20 10 0
6 18 10 40 10 27 0 40 4 40 13 0 8 17 22 38 33 20 10 39 22 40 27 2 4 21 7 43
7 35 0 39 3 39 25 0 23 4 25 40 25 36 0 40 3 40 24 0 23 4 24 80 31 76 7 80 8
80 31 0 21 4 24 40 24 29 0 40 4 40 15 0 11 11 15 40 15 29 0 40 -4 40 -15 0
-11 11 -15 40 -15 29 0 40 4 40 15 0 11 -11 15 -40 15 -36 0 -40 3 -40 25 0
23 4 25 40 25 29 0 40 4 40 15 0 11 11 15 40 15 29 0 40 4 40 15 0 11 11 15
40 15 29 0 40 4 40 15 0 11 11 15 40 15 22 0 40 3 40 8 0 8 49 32 67 32 7 0
13 -4 13 -10 0 -5 18 -10 40 -10 29 0 40 4 40 15 0 11 11 15 40 15 28 0 40 -4
40 -14 0 -10 -22 -16 -80 -21 -80 -7 -80 -7 -80 -36 0 -27 3 -29 40 -29 33 0
40 3 40 20 0 17 7 20 40 20 29 0 40 4 40 15 0 8 7 15 15 15 11 0 15 11 15 40
0 36 3 40 25 40 16 0 25 6 25 15 0 12 16 15 80 15 47 0 80 4 80 10 0 6 18 10
40 10 22 0 40 5 40 10 0 6 18 10 40 10 22 0 40 5 40 10 0 6 58 10 154 10 93 0
157 4 161 10 3 6 24 10 46 10 37 0 39 -2 39 -30 0 -28 -2 -30 -40 -30 -22 0
-40 -4 -40 -10 0 -5 18 -10 40 -10 22 0 40 5 40 10 0 6 18 10 40 10 38 0 40 2
40 30 0 28 2 30 40 30 22 0 40 5 40 10 0 6 33 10 80 10 47 0 80 -4 80 -10z
m1040 -55 c0 -11 11 -15 40 -15 29 0 40 -4 40 -15 0 -11 -11 -15 -40 -15 -29
0 -40 4 -40 15 0 11 -11 15 -40 15 -22 0 -40 4 -40 9 0 6 -19 12 -42 14 -24 2
-6 4 40 5 67 2 82 -1 82 -13z m-2640 -174 c0 -11 -9 -21 -22 -24 -13 -2 -31
-8 -40 -12 -14 -5 -18 -2 -18 12 0 12 11 22 33 30 46 15 47 15 47 -6z m-160
-36 c0 -11 -11 -15 -40 -15 -29 0 -40 4 -40 15 0 11 11 15 40 15 29 0 40 -4
40 -15z m-320 -80 c0 -8 -7 -15 -16 -15 -14 0 -14 3 -4 15 7 8 14 15 16 15 2
0 4 -7 4 -15z m240 0 c0 -11 -11 -15 -40 -15 -29 0 -40 4 -40 15 0 11 11 15
40 15 29 0 40 -4 40 -15z m-160 -80 c0 -11 -11 -15 -40 -15 -29 0 -40 4 -40
15 0 11 11 15 40 15 29 0 40 -4 40 -15z m-480 -85 c0 -5 -7 -10 -16 -10 -8 0
-12 5 -9 10 3 6 10 10 16 10 5 0 9 -4 9 -10z m-80 -75 c0 -8 -7 -15 -16 -15
-14 0 -14 3 -4 15 7 8 14 15 16 15 2 0 4 -7 4 -15z m4764 0 c8 -8 24 -15 35
-15 12 0 21 -6 21 -14 0 -22 29 -46 56 -46 47 0 23 -18 -29 -22 -53 -3 -53 -3
-49 25 4 26 2 27 -37 27 -39 0 -41 2 -41 30 0 33 19 40 44 15z m-4604 -5 c0
-5 -7 -10 -15 -10 -8 0 -15 5 -15 10 0 6 7 10 15 10 8 0 15 -4 15 -10z m-160
-135 c0 -11 -11 -15 -40 -15 -29 0 -40 4 -40 15 0 11 11 15 40 15 29 0 40 -4
40 -15z m4988 -47 c-3 -7 -15 -13 -28 -13 -13 0 -25 6 -27 13 -3 8 6 12 27 12
21 0 30 -4 28 -12z m72 -53 c11 -13 8 -15 -19 -15 -30 0 -39 9 -24 23 11 11
30 8 43 -8z m144 -61 c9 -3 16 -12 16 -20 0 -8 4 -14 9 -14 5 0 13 -18 19 -40
8 -32 7 -40 -4 -40 -8 0 -14 7 -14 15 0 8 -13 21 -30 30 -33 17 -39 35 -12 35
16 1 16 1 0 14 -30 22 -20 34 16 20z m-5604 -89 c0 -20 -5 -25 -25 -25 -29 0
-31 7 -8 32 22 25 33 23 33 -7z m5764 -18 c8 -7 16 -23 20 -34 4 -12 17 -25
29 -29 27 -9 43 -24 51 -52 4 -12 18 -25 32 -28 43 -11 26 -24 -31 -24 l-55 0
0 40 c0 36 -2 40 -25 40 -22 0 -25 4 -25 40 l0 40 -40 0 c-22 0 -40 5 -40 10
0 15 69 12 84 -3z m236 -77 c0 -5 -7 -10 -15 -10 -8 0 -15 5 -15 10 0 6 7 10
15 10 8 0 15 -4 15 -10z m-6140 -103 c0 -23 -25 -67 -37 -67 -8 0 -13 15 -13
40 0 36 3 40 25 40 14 0 25 -6 25 -13z m6092 -25 c7 -10 21 -21 31 -25 9 -3
17 -12 17 -19 0 -7 18 -26 40 -42 22 -17 40 -38 40 -48 0 -10 5 -18 10 -18 6
0 10 -7 10 -15 0 -8 -4 -15 -10 -15 -5 0 -10 -9 -10 -20 0 -22 -3 -23 -49 -14
-21 4 -31 12 -31 25 0 10 -4 21 -10 24 -5 3 -10 15 -10 25 0 10 -13 31 -28 47
-22 21 -29 39 -30 71 -2 45 9 53 30 24z m-6192 -27 c0 -8 -7 -15 -16 -15 -14
0 -14 3 -4 15 7 8 14 15 16 15 2 0 4 -7 4 -15z m-37 -97 l42 -1 -42 -4 c-24
-2 -43 -8 -43 -14 0 -15 -20 -10 -26 6 -4 8 0 23 7 32 13 15 14 15 17 0 3 -12
15 -17 45 -19z m-98 -78 c0 -13 -6 -25 -12 -27 -9 -3 -13 6 -13 27 0 21 4 30
13 28 6 -3 12 -15 12 -28z m-105 -105 c0 -42 -3 -55 -15 -55 -8 0 -15 -7 -15
-15 0 -20 -20 -19 -36 3 -12 15 -13 12 -14 -25 0 -31 -4 -43 -15 -43 -11 0
-15 11 -15 40 0 22 4 40 9 40 6 0 11 17 13 38 3 34 6 37 36 40 20 2 32 9 32
18 0 8 5 14 10 14 6 0 10 -25 10 -55z m-110 38 c0 -5 -11 -13 -25 -20 -29 -13
-33 -6 -7 13 19 15 32 18 32 7z m-27 -173 c21 0 21 0 -1 -16 -16 -11 -22 -24
-20 -42 2 -16 -4 -34 -14 -44 -10 -10 -18 -27 -18 -38 0 -11 -7 -20 -15 -20
-7 0 -19 -8 -24 -17 -10 -17 -10 -17 -11 0 0 12 -8 17 -30 17 -34 0 -37 7 -15
36 15 19 15 19 34 -4 19 -22 20 -22 30 -3 6 11 11 27 11 35 0 9 5 16 10 16 6
0 10 19 10 43 0 44 22 84 28 53 2 -9 13 -16 25 -16z m7037 -95 c0 -8 -4 -15
-10 -15 -5 0 -10 7 -10 15 0 8 5 15 10 15 6 0 10 -7 10 -15z m-7209 -145 c13
0 7 -82 -6 -87 -6 -2 -9 15 -7 42 4 43 3 45 -23 45 -29 0 -29 0 0 47 l20 33 3
-40 c2 -22 8 -40 13 -40z m7479 -10 c0 -5 -4 -10 -9 -10 -6 0 -13 5 -16 10 -3
6 1 10 9 10 9 0 16 -4 16 -10z m-7600 -140 c0 -5 -7 -10 -16 -10 -8 0 -12 5
-9 10 3 6 10 10 16 10 5 0 9 -4 9 -10z m-40 -14 c0 -3 -4 -8 -10 -11 -5 -3
-10 -1 -10 4 0 6 5 11 10 11 6 0 10 -2 10 -4z m-30 -66 c0 -13 -5 -18 -15 -14
-16 7 -19 17 -8 27 12 13 23 7 23 -13z m7678 -10 c13 0 22 -6 22 -15 0 -11
-11 -15 -40 -15 -38 0 -40 1 -40 32 0 29 1 30 18 15 10 -10 28 -17 40 -17z
m-7630 -23 c-5 -34 -28 -33 -28 2 0 23 4 29 16 24 8 -3 14 -15 12 -26z m7702
-79 c0 -10 8 -26 18 -35 12 -13 16 -30 14 -60 -2 -34 0 -43 12 -43 20 0 21
-16 2 -27 -7 -4 -16 -15 -19 -23 -3 -9 -6 -4 -6 12 -1 15 -5 30 -11 33 -5 3
-10 24 -10 46 0 21 -4 39 -10 39 -5 0 -10 8 -10 18 0 10 -7 27 -15 38 -8 10
-15 27 -15 37 0 17 1 17 25 0 13 -10 25 -26 25 -35z m74 36 c8 -21 3 -26 -17
-18 -9 3 -13 12 -10 20 7 19 19 18 27 -2z m-7804 -30 c0 -9 -5 -14 -12 -12
-18 6 -21 28 -4 28 9 0 16 -7 16 -16z m7840 -209 c0 -8 7 -15 15 -15 11 0 15
-11 15 -40 0 -29 -4 -40 -15 -40 -8 0 -15 -8 -15 -17 0 -15 -2 -16 -10 -3 -6
10 -6 16 0 18 6 2 10 21 10 43 0 28 -4 39 -15 39 -16 0 -20 12 -8 23 11 12 23
8 23 -8z m120 -5 c0 -5 -4 -10 -10 -10 -5 0 -10 5 -10 10 0 6 5 10 10 10 6 0
10 -4 10 -10z m-95 -180 c-3 -5 -10 -10 -16 -10 -5 0 -9 5 -9 10 0 6 7 10 16
10 8 0 12 -4 9 -10z m183 -30 c8 -32 7 -40 -4 -40 -8 0 -14 7 -14 15 0 9 -7
18 -15 21 -22 9 -19 44 4 44 13 0 21 -11 29 -40z m-128 0 c0 -21 -15 -27 -25
-10 -7 12 2 30 16 30 5 0 9 -9 9 -20z m-55 -30 c3 -5 -1 -10 -9 -10 -9 0 -16
5 -16 10 0 6 4 10 9 10 6 0 13 -4 16 -10z m54 -42 c0 -28 -2 -30 -9 -13 -12
28 -12 45 0 45 6 0 10 -15 9 -32z m-8339 -38 c0 -5 -4 -10 -10 -10 -5 0 -10 5
-10 10 0 6 5 10 10 10 6 0 10 -4 10 -10z m-63 -137 c-3 -10 -5 -2 -5 17 0 19
2 27 5 18 2 -10 2 -26 0 -35z m8650 -25 c-3 -8 -6 -5 -6 6 -1 11 2 17 5 13 3
-3 4 -12 1 -19z m-8638 -29 c-13 -25 -35 -24 -42 0 -6 25 -2 29 28 23 21 -3
23 -7 14 -23z m8679 -103 c8 -29 8 -36 -4 -36 -8 0 -14 7 -14 15 0 9 -7 18
-15 21 -9 4 -15 19 -15 42 0 36 0 36 19 15 11 -11 24 -37 29 -57z m-8748 -21
c0 -8 -4 -15 -10 -15 -5 0 -10 7 -10 15 0 8 5 15 10 15 6 0 10 -7 10 -15z
m8787 -87 c-3 -8 -6 -5 -6 6 -1 11 2 17 5 13 3 -3 4 -12 1 -19z m-8844 -89
c-4 -4 -6 15 -3 44 l5 52 3 -44 c2 -24 0 -47 -5 -52z m8787 41 c0 -29 -4 -40
-15 -40 -8 0 -15 -8 -15 -17 0 -15 -2 -16 -10 -3 -6 10 -6 16 0 18 6 2 10 21
10 43 0 28 4 39 15 39 11 0 15 -11 15 -40z m108 -52 c-3 -7 -11 -13 -18 -13
-7 0 -15 6 -17 13 -3 7 4 12 17 12 13 0 20 -5 18 -12z m-38 -59 c0 -5 -4 -9
-10 -9 -5 0 -10 7 -10 16 0 8 5 12 10 9 6 -3 10 -10 10 -16z m56 -6 c-10 -10
-19 5 -10 18 6 11 8 11 12 0 2 -7 1 -15 -2 -18z m-8946 -102 c-5 -11 -10 -29
-10 -40 0 -12 -4 -21 -10 -21 -5 0 -10 18 -10 40 0 34 3 40 20 40 17 0 19 -3
10 -19z m-40 -101 c0 -22 -4 -40 -10 -40 -5 0 -10 18 -10 40 0 22 5 40 10 40
6 0 10 -18 10 -40z m8907 -22 c-2 -13 -4 -3 -4 22 0 25 2 35 4 23 2 -13 2 -33
0 -45z m133 22 c0 -32 4 -40 19 -40 15 0 19 -11 25 -61 3 -34 11 -67 16 -74
11 -13 3 -45 -10 -45 -5 0 -12 5 -15 10 -3 6 -1 10 4 10 6 0 11 7 11 15 0 8
-4 15 -10 15 -5 0 -10 11 -10 25 0 16 -6 25 -15 25 -11 0 -15 11 -15 40 0 22
-4 40 -10 40 -5 0 -10 18 -10 40 0 22 5 40 10 40 6 0 10 -18 10 -40z m-80
-160 c0 -22 -4 -40 -10 -40 -5 0 -10 18 -10 40 0 22 5 40 10 40 6 0 10 -18 10
-40z m212 -650 c5 -161 4 -181 -4 -115 -6 44 -14 82 -18 85 -4 3 -5 77 -2 165
7 197 17 146 24 -135z m-9245 148 c-2 -13 -4 -3 -4 22 0 25 2 35 4 23 2 -13 2
-33 0 -45z m-57 -578 c0 -47 -4 -80 -10 -80 -6 0 -10 33 -10 80 0 47 4 80 10
80 6 0 10 -33 10 -80z m9306 -162 l1 -163 -13 90 c-17 124 -18 235 -1 235 10
0 13 -37 13 -162z m-99 20 c-2 -13 -4 -3 -4 22 0 25 2 35 4 23 2 -13 2 -33 0
-45z m-9120 -80 c-2 -13 -4 -3 -4 22 0 25 2 35 4 23 2 -13 2 -33 0 -45z m-110
-80 c-2 -13 -4 -3 -4 22 0 25 2 35 4 23 2 -13 2 -33 0 -45z m53 22 c0 -22 5
-40 10 -40 6 0 10 -18 10 -40 0 -22 -4 -40 -10 -40 -5 0 -10 18 -10 40 0 29
-4 40 -15 40 -11 0 -15 11 -15 40 0 29 4 40 15 40 11 0 15 -11 15 -40z m9255
-198 c-10 -11 -11 4 -6 83 l6 80 3 -79 c2 -43 0 -81 -3 -84z m-9198 -44 c-2
-24 -4 -5 -4 42 0 47 2 66 4 43 2 -24 2 -62 0 -85z m-17 -10 c0 -29 3 -91 7
-138 6 -79 5 -84 -10 -71 -11 9 -17 29 -17 57 0 24 -4 44 -10 44 -6 0 -10 33
-10 80 0 73 2 80 20 80 17 0 20 -7 20 -52z m9207 -90 c-2 -13 -4 -3 -4 22 0
25 2 35 4 23 2 -13 2 -33 0 -45z m-9220 -320 c-2 -13 -4 -3 -4 22 0 25 2 35 4
23 2 -13 2 -33 0 -45z m9153 -142 c0 -52 -6 -43 -13 18 -3 30 -1 43 4 35 5 -8
9 -32 9 -53z m-9080 -36 c0 -66 3 -80 16 -80 18 0 15 -31 -3 -37 -16 -6 -33
38 -33 83 0 19 -4 34 -10 34 -5 0 -10 18 -10 40 0 33 3 40 20 40 18 0 20 -7
20 -80z m8997 -222 c-2 -13 -4 -3 -4 22 0 25 2 35 4 23 2 -13 2 -33 0 -45z
m-8967 -243 c0 -8 -4 -15 -10 -15 -5 0 -10 7 -10 15 0 8 5 15 10 15 6 0 10 -7
10 -15z m130 -66 c0 -32 -4 -49 -11 -47 -6 2 -10 7 -10 11 1 4 1 25 1 47 0 22
5 40 10 40 6 0 10 -23 10 -51z m8560 -19 c0 -5 -4 -10 -10 -10 -5 0 -10 5 -10
10 0 6 5 10 10 10 6 0 10 -4 10 -10z m-8693 -32 c-3 -8 -6 -5 -6 6 -1 11 2 17
5 13 3 -3 4 -12 1 -19z m8743 -227 c0 -6 -4 -13 -10 -16 -5 -3 -10 1 -10 9 0
9 5 16 10 16 6 0 10 -4 10 -9z m-80 -243 c0 -7 -5 -20 -10 -28 -8 -12 -10 -9
-10 13 0 15 5 27 10 27 6 0 10 -6 10 -12z m-8422 -83 c3 -25 2 -27 -12 -16
-19 16 -22 55 -3 49 6 -3 14 -17 15 -33z m8362 -75 c0 -5 -4 -10 -10 -10 -5 0
-10 5 -10 10 0 6 5 10 10 10 6 0 10 -4 10 -10z m-8264 -63 c4 -4 2 -7 -4 -7
-7 0 -12 -7 -12 -15 0 -8 -4 -15 -10 -15 -5 0 -10 4 -10 9 0 5 -3 17 -6 25 -5
12 -1 15 15 13 11 -2 24 -6 27 -10z m8231 -9 c-3 -8 -6 -5 -6 6 -1 11 2 17 5
13 3 -3 4 -12 1 -19z m-67 -88 c0 -5 -4 -10 -10 -10 -5 0 -10 5 -10 10 0 6 5
10 10 10 6 0 10 -4 10 -10z m-8070 -79 c0 -5 12 -23 26 -40 14 -17 21 -31 15
-31 -6 0 -11 -10 -11 -21 0 -32 -26 -7 -41 39 -6 20 -16 43 -22 50 -7 9 -4 12
12 12 11 0 21 -4 21 -9z m8025 -1 c-3 -5 -10 -10 -16 -10 -5 0 -9 5 -9 10 0 6
7 10 16 10 8 0 12 -4 9 -10z m-48 -92 c-3 -8 -6 -5 -6 6 -1 11 2 17 5 13 3 -3
4 -12 1 -19z m-7908 -58 c6 0 11 -5 11 -10 0 -13 -32 -9 -42 5 -4 6 -8 17 -8
25 1 12 3 12 14 -2 7 -10 18 -18 25 -18z m7658 -342 c-3 -8 -6 -5 -6 6 -1 11
2 17 5 13 3 -3 4 -12 1 -19z m-7197 -283 c0 -8 -4 -15 -10 -15 -5 0 -7 7 -4
15 4 8 8 15 10 15 2 0 4 -7 4 -15z m240 -265 c0 -5 -4 -10 -10 -10 -5 0 -10 5
-10 10 0 6 5 10 10 10 6 0 10 -4 10 -10z m160 -160 c0 -5 -4 -10 -10 -10 -5 0
-10 5 -10 10 0 6 5 10 10 10 6 0 10 -4 10 -10z m5980 -66 c0 -2 -13 -4 -30 -4
-20 0 -30 5 -30 14 0 12 6 13 30 5 17 -6 30 -13 30 -15z m-5870 -14 c0 -5 -7
-10 -15 -10 -8 0 -15 5 -15 10 0 6 7 10 15 10 8 0 15 -4 15 -10z m150 1 c0 -6
-4 -13 -10 -16 -5 -3 -10 1 -10 9 0 9 5 16 10 16 6 0 10 -4 10 -9z m36 -56 c4
-8 13 -15 22 -15 13 0 14 -2 3 -12 -11 -10 -14 -10 -18 0 -3 6 -13 12 -24 12
-19 0 -25 11 -12 23 11 11 23 8 29 -8z m5624 -90 c0 -8 -4 -15 -9 -15 -13 0
-22 16 -14 24 11 11 23 6 23 -9z m-52 -37 c-6 -18 -28 -21 -28 -4 0 9 7 16 16
16 9 0 14 -5 12 -12z m-5358 -57 c0 -17 -22 -24 -30 -11 -4 7 -13 9 -19 6 -6
-4 -11 -2 -11 3 0 6 14 11 30 11 17 0 30 -4 30 -9z m5190 -56 c0 -8 -4 -15
-10 -15 -5 0 -10 7 -10 15 0 8 5 15 10 15 6 0 10 -7 10 -15z m-340 -85 c0 -5
-7 -10 -16 -10 -8 0 -12 5 -9 10 3 6 10 10 16 10 5 0 9 -4 9 -10z m-4612 -22
c-7 -20 -48 -23 -48 -4 0 11 9 16 26 16 16 0 24 -5 22 -12z m52 -53 c0 -11 11
-15 36 -15 26 0 43 -7 60 -25 15 -16 34 -25 54 -25 18 0 33 -6 36 -15 4 -8 17
-15 30 -15 13 0 24 -4 24 -10 0 -5 -21 -10 -46 -10 -37 0 -52 5 -70 25 -13 14
-30 25 -38 25 -8 0 -32 11 -52 25 -20 14 -43 25 -50 25 -15 0 -18 12 -7 23 11
12 23 8 23 -8z m320 -135 c0 -5 -18 -10 -40 -10 -22 0 -40 5 -40 10 0 6 18 10
40 10 22 0 40 -4 40 -10z m3760 -40 c0 -28 -2 -30 -40 -30 -22 0 -40 -4 -40
-10 0 -5 -18 -10 -40 -10 -22 0 -40 5 -40 10 0 6 18 10 40 10 38 0 40 2 40 30
0 28 2 30 40 30 38 0 40 -2 40 -30z m-3680 -16 c0 -14 -3 -14 -15 -4 -8 7 -15
14 -15 16 0 2 7 4 15 4 8 0 15 -7 15 -16z m3395 -54 c47 -7 45 -7 -32 -9 -50
0 -83 3 -83 9 0 11 43 12 115 0z m-3092 -17 c-13 -2 -35 -2 -50 0 -16 2 -5 4
22 4 28 0 40 -2 28 -4z m177 -83 c0 -5 -7 -7 -15 -4 -8 4 -15 8 -15 10 0 2 7
4 15 4 8 0 15 -4 15 -10z m2480 -5 c0 -11 -11 -15 -40 -15 -29 0 -40 4 -40 15
0 11 11 15 40 15 29 0 40 -4 40 -15z m-160 -55 c0 -5 -18 -10 -40 -10 -22 0
-40 5 -40 10 0 6 18 10 40 10 22 0 40 -4 40 -10z m160 -25 c0 -11 -11 -15 -40
-15 -29 0 -40 4 -40 15 0 11 11 15 40 15 29 0 40 -4 40 -15z m-1760 -105 c0
-5 18 -10 40 -10 29 0 40 -4 40 -15 0 -12 -14 -15 -65 -15 -36 0 -65 3 -65 7
0 10 32 43 42 43 4 0 8 -4 8 -10z m1023 -67 c-13 -2 -33 -2 -45 0 -13 2 -3 4
22 4 25 0 35 -2 23 -4z"/>
<path d="M5440 9882 c0 -11 148 -28 157 -18 11 11 -1 14 -79 21 -50 5 -78 4
-78 -3z"/>
<path d="M4363 9843 c-24 -2 -43 -8 -43 -13 0 -4 -36 -11 -80 -15 -62 -5 -80
-11 -80 -22 0 -13 12 -14 78 -8 42 4 79 11 80 16 2 5 21 9 43 9 27 0 39 4 39
14 0 10 14 16 43 19 l42 4 -40 0 c-22 0 -59 -2 -82 -4z"/>
<path d="M5723 9843 c24 -3 37 -9 37 -19 0 -10 12 -14 40 -14 22 0 40 -4 40
-10 0 -6 33 -10 80 -10 64 0 80 3 80 15 0 12 -15 15 -79 15 -44 0 -81 4 -83 9
-1 5 -37 11 -78 14 -41 2 -58 2 -37 0z"/>
<path d="M5360 9830 c0 -5 7 -10 15 -10 8 0 15 5 15 10 0 6 -7 10 -15 10 -8 0
-15 -4 -15 -10z"/>
<path d="M6170 9764 c8 -4 19 -13 23 -20 10 -17 83 -19 92 -3 10 16 3 19 -66
24 -35 3 -57 2 -49 -1z"/>
<path d="M5200 9750 c0 -5 7 -10 15 -10 8 0 15 5 15 10 0 6 -7 10 -15 10 -8 0
-15 -4 -15 -10z"/>
<path d="M5520 9745 c0 -11 -11 -15 -40 -15 -22 0 -40 -4 -40 -10 0 -5 18 -10
40 -10 22 0 40 5 40 10 0 6 18 10 40 10 29 0 40 4 40 15 0 11 -11 15 -40 15
-29 0 -40 -4 -40 -15z"/>
<path d="M5732 9748 c6 -18 28 -21 28 -4 0 9 -7 16 -16 16 -9 0 -14 -5 -12
-12z"/>
<path d="M5680 9696 c0 -9 7 -16 16 -16 9 0 14 5 12 12 -6 18 -28 21 -28 4z"/>
<path d="M5520 9670 c0 -5 7 -10 15 -10 8 0 15 5 15 10 0 6 -7 10 -15 10 -8 0
-15 -4 -15 -10z"/>
<path d="M6480 9664 c0 -9 5 -14 12 -12 18 6 21 28 4 28 -9 0 -16 -7 -16 -16z"/>
<path d="M3890 9590 c0 -5 7 -10 15 -10 8 0 15 5 15 10 0 6 -7 10 -15 10 -8 0
-15 -4 -15 -10z"/>
<path d="M6098 9593 c12 -2 32 -2 45 0 12 2 2 4 -23 4 -25 0 -35 -2 -22 -4z"/>
<path d="M6098 9513 c12 -2 32 -2 45 0 12 2 2 4 -23 4 -25 0 -35 -2 -22 -4z"/>
<path d="M6320 9430 c0 -5 7 -7 15 -4 8 4 15 8 15 10 0 2 -7 4 -15 4 -8 0 -15
-4 -15 -10z"/>
<path d="M6850 9390 c0 -38 4 -50 15 -50 11 0 15 12 15 50 0 38 -4 50 -15 50
-11 0 -15 -12 -15 -50z"/>
<path d="M6240 9370 c0 -6 7 -10 15 -10 8 0 15 2 15 4 0 2 -7 6 -15 10 -8 3
-15 1 -15 -4z"/>
<path d="M3256 9345 c4 -8 10 -15 15 -15 5 0 9 7 9 15 0 8 -7 15 -15 15 -9 0
-12 -6 -9 -15z"/>
<path d="M6930 9356 c0 -2 7 -9 15 -16 12 -10 15 -10 15 4 0 9 -7 16 -15 16
-8 0 -15 -2 -15 -4z"/>
<path d="M2880 9265 c0 -11 11 -15 40 -15 29 0 40 4 40 15 0 11 -11 15 -40 15
-29 0 -40 -4 -40 -15z"/>
<path d="M7120 9265 c0 -19 80 -22 80 -2 1 18 30 -24 30 -43 0 -17 38 -45 48
-35 3 3 -2 19 -11 34 -9 16 -17 36 -17 45 0 13 -12 16 -65 16 -51 0 -65 -3
-65 -15z"/>
<path d="M7360 9105 c0 -11 11 -15 40 -15 22 0 40 -4 40 -10 0 -5 7 -10 15
-10 20 0 19 20 -2 36 -25 19 -93 18 -93 -1z"/>
<path d="M2560 9055 c0 -8 5 -15 10 -15 6 0 10 7 10 15 0 8 -4 15 -10 15 -5 0
-10 -7 -10 -15z"/>
<path d="M7485 9050 c-3 -5 3 -10 14 -10 12 0 21 5 21 10 0 6 -6 10 -14 10 -8
0 -18 -4 -21 -10z"/>
<path d="M2480 9024 c0 -14 3 -14 15 -4 8 7 15 14 15 16 0 2 -7 4 -15 4 -8 0
-15 -7 -15 -16z"/>
<path d="M2560 8944 c0 -14 3 -14 15 -4 8 7 15 14 15 16 0 2 -7 4 -15 4 -8 0
-15 -7 -15 -16z"/>
<path d="M7597 8940 c-4 -17 -2 -18 14 -9 22 11 25 29 5 29 -7 0 -16 -9 -19
-20z"/>
<path d="M7656 8901 c-11 -17 6 -41 29 -41 26 0 55 -24 55 -46 0 -8 5 -14 10
-14 6 0 10 18 10 40 l0 40 -40 0 c-29 0 -40 4 -40 15 0 17 -16 20 -24 6z"/>
<path d="M2400 8790 c0 -5 5 -10 10 -10 6 0 10 5 10 10 0 6 -4 10 -10 10 -5 0
-10 -4 -10 -10z"/>
<path d="M3175 8789 c7 -11 -26 -49 -37 -43 -7 4 -8 2 -4 -4 4 -6 0 -25 -9
-42 -8 -16 -13 -30 -10 -30 2 0 13 17 24 38 10 20 30 49 44 62 22 23 23 26 7
26 -10 0 -17 -3 -15 -7z"/>
<path d="M6988 8783 c6 -2 18 -2 25 0 6 3 1 5 -13 5 -14 0 -19 -2 -12 -5z"/>
<path d="M3342 8754 c10 -10 20 -16 22 -13 3 3 -5 11 -17 18 -21 13 -21 12 -5
-5z"/>
<path d="M2320 8730 c0 -5 -11 -10 -25 -10 -17 0 -23 -4 -19 -14 5 -13 11 -13
40 1 36 17 45 33 19 33 -8 0 -15 -4 -15 -10z"/>
<path d="M3225 8698 c-28 -16 -41 -35 -70 -96 -40 -85 -97 -400 -66 -366 4 5
21 50 36 99 29 99 84 190 127 215 25 13 31 13 62 -4 49 -26 253 -230 396 -396
67 -78 153 -159 162 -153 7 3 8 1 4 -6 -5 -7 34 -54 103 -125 193 -195 215
-235 209 -382 -2 -46 -1 -84 1 -84 2 0 29 15 60 34 73 45 162 79 173 68 15
-15 -3 -42 -45 -63 -31 -16 -37 -23 -26 -31 10 -7 8 -8 -8 -3 -19 5 -134 -41
-226 -92 -39 -21 -46 -9 -15 25 47 49 64 184 33 259 -25 58 -109 156 -305 354
-136 136 -323 336 -355 379 -52 69 -139 159 -165 170 -21 9 -33 9 -50 0 -41
-22 -115 -220 -141 -379 -6 -36 -10 -131 -10 -211 1 -270 50 -389 293 -717 43
-58 27 -67 -19 -12 -21 24 -76 85 -123 134 -99 104 -129 142 -169 214 -48 89
-46 24 5 -182 23 -93 48 -147 148 -330 59 -106 40 -101 -59 18 -66 79 -67 80
-92 83 -27 4 -28 -2 -8 -86 18 -77 46 -130 121 -232 49 -68 60 -78 76 -69 10
6 16 14 14 18 -3 4 0 8 7 8 7 0 37 16 68 35 94 61 264 124 356 133 32 3 70 8
86 10 43 7 34 -22 -10 -29 -78 -14 -282 -80 -276 -89 3 -6 1 -7 -5 -3 -26 16
-199 -93 -317 -199 -29 -26 -35 -35 -20 -32 11 2 19 8 18 15 -2 6 4 9 12 6 7
-3 44 10 82 30 124 64 281 121 363 132 77 10 62 -11 -30 -42 -108 -37 -266
-116 -378 -191 -53 -36 -99 -68 -102 -72 -3 -4 -33 -25 -67 -45 -35 -22 -60
-43 -56 -49 4 -6 0 -8 -11 -4 -11 5 -15 3 -10 -5 5 -7 2 -9 -8 -6 -8 4 -35 -7
-59 -23 -24 -16 -39 -29 -34 -29 6 0 20 7 31 15 12 8 25 11 29 7 5 -4 5 -1 1
6 -5 8 1 12 18 12 13 0 53 13 88 29 206 94 325 135 347 122 6 -4 -104 -65
-246 -136 -142 -71 -259 -132 -261 -137 -2 -4 -11 -8 -21 -8 -9 0 -26 -7 -37
-16 -19 -15 -19 -15 1 -10 11 3 38 9 60 15 22 5 65 13 95 16 30 4 72 14 94 21
58 21 65 17 22 -12 -43 -29 -62 -44 -115 -90 -20 -17 -62 -51 -93 -76 -31 -26
-53 -50 -50 -54 4 -4 1 -4 -5 0 -16 9 -75 -33 -66 -47 3 -6 1 -7 -4 -4 -9 6
-43 -14 -78 -45 -10 -10 39 7 59 20 6 3 16 8 21 9 6 1 46 16 90 32 75 28 125
49 254 107 63 29 111 41 111 27 0 -5 -11 -16 -25 -23 -14 -7 -25 -17 -25 -22
0 -5 -4 -6 -10 -3 -5 3 -10 2 -10 -3 0 -5 -8 -12 -17 -15 -15 -4 -261 -189
-328 -246 -11 -9 -46 -36 -78 -60 -31 -24 -57 -47 -57 -52 0 -5 -6 -9 -12 -9
-7 -1 -26 -12 -43 -26 l-30 -24 65 24 c114 43 123 46 243 103 65 30 120 53
123 50 3 -3 -19 -27 -48 -53 -197 -180 -432 -434 -416 -450 3 -2 48 14 99 36
115 51 307 120 328 119 11 0 9 -5 -9 -17 -155 -105 -321 -382 -355 -590 l-7
-44 27 24 c15 13 48 50 74 83 99 125 289 300 459 421 175 124 264 184 273 184
20 0 8 -46 -18 -71 -46 -42 -123 -99 -172 -125 -211 -112 -480 -360 -554 -509
-30 -60 -62 -155 -71 -210 l-7 -40 63 70 c75 84 172 180 242 239 63 54 214
156 229 156 14 -1 -10 -21 -119 -105 -86 -65 -430 -403 -420 -412 3 -3 -2 -12
-12 -19 -30 -24 5 -15 80 19 228 105 309 139 315 133 3 -3 0 -18 -7 -33 -8
-16 -14 -30 -15 -33 -1 -3 -11 -25 -22 -50 -59 -130 -99 -326 -91 -441 6 -85
22 -109 32 -48 22 136 194 406 310 486 77 53 84 39 14 -29 -71 -70 -133 -150
-169 -218 -13 -25 -27 -47 -31 -50 -8 -6 -38 -75 -38 -86 0 -4 14 14 31 39 57
86 66 69 18 -33 -17 -36 -37 -94 -45 -130 -17 -78 -17 -226 0 -295 l12 -50 8
54 c5 30 16 78 26 105 25 73 91 216 100 216 13 0 20 -28 40 -169 33 -235 118
-453 202 -519 15 -12 15 -10 2 35 -8 26 -19 120 -25 208 -15 237 0 390 56 567
57 180 130 268 287 343 99 47 129 56 134 40 1 -5 -37 -29 -84 -53 -185 -90
-259 -195 -323 -457 -41 -167 -36 -444 11 -580 40 -117 137 -313 180 -365 l29
-35 -20 70 c-18 66 -30 157 -60 441 -19 182 12 433 69 574 19 44 12 -2 -14
-105 -21 -81 -27 -129 -30 -255 l-3 -155 19 95 c70 346 123 478 242 605 33 36
64 65 69 65 14 0 11 -17 -6 -34 -31 -31 -124 -205 -158 -296 -47 -123 -104
-351 -118 -465 -16 -133 5 -314 51 -433 27 -69 114 -244 148 -295 l27 -41 6
135 c9 190 36 349 60 349 5 0 9 -16 9 -37 0 -34 19 -81 170 -426 52 -117 118
-237 156 -283 l23 -29 -21 52 c-12 29 -26 49 -31 46 -6 -3 -7 -1 -3 6 11 17
-10 111 -50 226 -71 203 -78 245 -79 425 l0 165 42 120 c50 146 89 235 103
235 14 0 13 -5 -19 -132 -57 -221 -84 -496 -62 -634 12 -79 40 -174 51 -174 4
0 11 25 15 57 13 109 18 109 72 -7 54 -115 140 -256 331 -539 109 -161 143
-217 198 -319 6 -13 15 -19 18 -13 4 5 3 12 -2 15 -4 2 -9 19 -10 38 -4 58
-32 199 -62 313 -28 108 -35 155 -31 205 2 23 3 24 11 5 5 -11 30 -78 55 -150
26 -71 71 -192 101 -267 29 -76 63 -168 75 -205 30 -91 76 -187 82 -171 3 7 6
0 6 -17 1 -28 3 -26 31 28 17 31 28 62 25 67 -3 6 -2 10 3 10 5 0 14 15 20 33
6 17 29 82 52 142 76 200 91 248 133 413 59 228 73 215 55 -47 -5 -68 -7 -126
-4 -128 6 -6 68 116 97 189 51 131 101 357 114 520 4 48 11 86 15 83 15 -9 32
-146 25 -203 -7 -58 -38 -194 -54 -234 -5 -13 -24 -61 -42 -108 -18 -47 -43
-102 -56 -122 -13 -21 -23 -41 -23 -45 0 -5 -12 -26 -27 -48 -15 -22 -38 -61
-50 -88 l-22 -47 22 11 c22 12 22 12 3 -10 -11 -11 -16 -24 -13 -28 4 -3 8 -4
10 -2 2 2 21 27 43 54 22 28 46 60 54 71 8 12 49 66 91 120 158 206 329 480
329 527 0 36 25 10 41 -44 l16 -54 14 45 c10 32 14 97 13 230 -1 202 -13 298
-64 492 -35 136 -34 129 -16 122 18 -7 48 -78 80 -186 40 -138 48 -204 47
-362 0 -82 2 -147 4 -144 17 17 86 316 91 393 6 84 3 98 -30 209 -20 65 -46
136 -57 158 -28 55 -17 59 19 6 47 -69 80 -141 103 -224 34 -123 22 -186 -111
-581 -59 -178 -131 -425 -125 -431 4 -5 108 165 143 234 54 106 141 332 153
396 6 35 15 67 19 71 16 18 34 -72 34 -173 1 -92 -3 -113 -26 -170 -15 -35
-26 -65 -25 -66 2 -2 30 29 64 67 85 97 127 184 170 346 31 116 37 153 36 233
-2 243 -127 610 -265 780 -51 63 -29 66 33 5 139 -138 214 -310 259 -595 17
-109 20 -112 43 -40 16 52 20 92 20 200 1 159 -13 220 -79 355 -47 95 -81 137
-181 224 -58 50 -75 71 -55 71 4 0 34 -17 66 -39 78 -51 167 -141 200 -201 70
-128 109 -365 88 -531 -16 -126 -74 -354 -169 -664 -12 -36 112 111 163 196
139 228 167 328 168 609 0 198 -18 299 -74 410 -34 67 -126 165 -208 220 -91
61 -53 71 47 12 128 -75 200 -166 244 -307 36 -115 48 -359 26 -540 -10 -90
-55 -342 -66 -373 -15 -43 20 12 70 110 65 127 110 257 137 397 11 57 23 107
26 112 3 5 -1 33 -10 62 -8 28 -22 93 -31 142 -21 125 -52 240 -77 289 -21 41
-43 66 -107 119 -48 40 -29 46 36 12 151 -81 271 -252 361 -513 l29 -82 13 99
c14 105 9 330 -9 406 -5 22 -12 64 -15 93 -6 52 -6 53 16 46 53 -16 168 -74
236 -117 68 -44 92 -55 92 -41 0 24 -150 273 -211 349 -97 124 -332 325 -467
401 -104 59 -158 98 -139 102 26 5 69 -14 162 -71 157 -96 341 -258 486 -427
35 -41 67 -77 71 -80 4 -3 22 -31 41 -63 l35 -58 7 75 c8 80 2 148 -21 240
-21 80 -74 197 -87 189 -6 -3 -7 -1 -3 6 14 22 -106 208 -178 273 -16 16 -27
30 -24 34 8 7 248 -78 346 -123 41 -18 77 -31 81 -28 3 3 -1 10 -9 15 -8 5
-15 13 -15 18 0 35 -233 293 -345 383 -30 24 -59 49 -63 56 -4 7 -14 13 -21
13 -15 0 -42 28 -34 35 5 5 52 -12 128 -47 171 -79 187 -84 187 -62 0 9 -5 10
-17 4 -20 -11 -30 -4 -30 21 0 12 -5 16 -15 13 -11 -4 -15 0 -15 16 0 19 -2
20 -15 10 -10 -8 -15 -9 -15 -1 0 13 -50 64 -109 111 -24 19 -65 55 -90 78
-25 24 -75 64 -111 88 -85 58 -122 89 -114 96 3 4 31 -6 63 -22 31 -15 83 -39
116 -53 33 -14 92 -40 130 -58 73 -34 235 -99 235 -95 0 11 -122 96 -130 91
-6 -3 -7 1 -4 9 3 9 2 16 -2 16 -5 0 -22 13 -39 28 -16 16 -52 45 -80 66 -27
21 -52 42 -55 45 -3 4 -27 24 -54 44 -27 20 -45 37 -40 37 15 0 190 -29 210
-35 11 -3 3 2 -16 12 -19 9 -38 16 -42 15 -5 -1 -8 5 -8 13 0 13 -5 16 -25 15
-3 -1 -13 6 -22 15 -8 9 -90 54 -182 100 -170 85 -210 109 -200 119 11 12 274
-85 323 -120 11 -7 30 -11 42 -8 12 3 33 1 46 -6 22 -11 22 -10 4 4 -11 9 -26
16 -33 16 -7 0 -13 5 -13 12 0 6 -3 9 -6 5 -3 -3 -15 4 -26 15 -11 11 -26 17
-34 14 -8 -3 -13 -2 -10 2 7 11 -119 105 -209 157 -42 24 -134 69 -205 100
-115 51 -153 75 -119 75 46 0 299 -91 356 -127 12 -8 28 -11 34 -7 8 5 9 3 4
-6 -6 -10 -4 -12 8 -7 10 4 16 2 14 -6 -1 -7 5 -12 13 -12 8 0 18 -4 22 -10 5
-6 8 -5 8 4 0 7 -21 32 -47 55 -136 121 -240 171 -483 231 -125 32 -143 40
-107 49 30 7 168 -17 254 -45 35 -11 68 -17 75 -13 7 4 10 4 6 -1 -4 -4 19
-20 52 -36 33 -15 87 -47 122 -70 39 -27 63 -38 66 -30 2 6 19 33 37 59 99
138 147 264 120 312 -8 14 -14 20 -15 13 0 -14 -96 -142 -125 -165 -13 -11
-23 -13 -30 -7 -6 7 -6 12 1 17 42 26 159 341 182 486 11 69 -3 74 -43 15 -38
-58 -279 -313 -283 -301 -3 11 43 81 121 180 99 127 157 268 177 432 24 200 1
389 -71 588 -37 102 -72 152 -107 152 -22 0 -87 -63 -173 -165 -122 -147 -214
-250 -335 -375 -66 -69 -143 -150 -170 -180 -27 -30 -54 -59 -60 -65 -21 -19
-76 -100 -90 -134 -14 -35 -19 -135 -8 -190 4 -17 17 -42 30 -56 13 -14 24
-28 24 -31 0 -13 -43 2 -153 51 -158 72 -197 98 -197 130 0 14 2 25 5 25 10 0
198 -101 228 -122 l28 -20 -8 29 c-13 45 -6 178 11 215 24 50 43 78 89 128 15
17 25 36 21 42 -4 6 -3 8 4 4 6 -3 20 6 32 21 12 16 81 91 154 168 73 77 195
210 272 295 167 186 251 269 279 276 57 14 104 -39 161 -180 17 -43 34 -75 36
-70 8 13 -9 127 -33 219 -30 118 -79 185 -135 185 -42 0 -125 -60 -252 -183
-75 -73 -175 -168 -222 -212 -47 -43 -97 -90 -111 -104 -25 -25 -49 -45 -145
-123 -22 -18 -79 -62 -127 -97 -47 -35 -84 -68 -81 -72 3 -5 -1 -6 -9 -3 -18
7 -119 -104 -146 -160 -11 -23 -27 -68 -35 -100 -18 -67 -20 -71 -37 -61 -33
21 22 212 82 284 15 19 25 39 22 44 -3 6 -2 7 4 4 5 -3 25 9 43 27 l32 34 -28
15 c-27 14 -32 13 -96 -21 -47 -25 -64 -39 -55 -45 8 -6 4 -7 -10 -4 -13 3
-23 2 -23 -1 0 -7 -9 -12 -103 -51 -33 -14 -46 -25 -41 -33 5 -8 0 -7 -11 2
-14 11 -17 12 -11 1 6 -9 5 -12 -5 -9 -8 3 -14 14 -14 25 0 12 -4 25 -9 30 -5
4 -6 3 -2 -4 4 -7 -2 -17 -14 -23 -11 -6 -20 -17 -20 -24 0 -8 -6 -19 -14 -25
-8 -7 -27 -51 -42 -98 -25 -80 -27 -92 -21 -216 6 -142 28 -236 86 -372 30
-71 32 -99 2 -56 -30 45 -88 185 -105 252 -41 165 -41 359 -1 456 8 19 12 40
8 46 -3 5 -2 8 3 5 5 -3 17 9 26 28 10 19 13 34 8 34 -6 0 -10 7 -10 15 0 8 5
15 11 15 5 0 7 -4 4 -10 -9 -14 8 -13 23 2 15 15 15 28 1 28 -5 0 -8 -4 -4
-10 3 -5 -7 -8 -25 -5 -16 2 -32 -1 -35 -6 -4 -5 -14 -9 -23 -9 -15 1 -14 3 3
16 19 16 19 16 -5 9 -14 -4 -27 -12 -28 -16 -2 -5 -8 -7 -13 -4 -10 7 -77 -26
-81 -40 -2 -5 11 -13 27 -17 26 -6 24 -7 -8 -3 -21 2 -35 0 -32 -5 3 -6 -1 -7
-10 -4 -14 6 -14 8 2 20 21 16 10 18 -18 3 -11 -5 -16 -15 -13 -21 5 -7 2 -9
-9 -5 -9 3 -19 1 -23 -5 -10 -16 -24 13 -18 39 7 27 -4 65 -17 58 -5 -4 -9 3
-9 13 0 11 -7 25 -15 32 -23 19 -68 -13 -60 -43 5 -17 4 -19 -4 -7 -8 11 -11
11 -12 3 -2 -16 -3 -21 -18 -60 -13 -32 -34 -43 -46 -23 -3 6 -11 10 -17 10
-6 0 -5 -7 3 -17 13 -16 12 -17 -3 -4 -10 7 -16 17 -13 21 3 5 1 11 -5 15 -5
3 -10 2 -10 -4 0 -6 -7 -8 -16 -4 -13 5 -13 7 -2 14 8 6 1 7 -19 5 -24 -2 -33
1 -33 11 0 12 -12 14 -52 12 -29 -2 -59 0 -65 4 -16 10 -36 -1 -27 -14 3 -5
10 -6 16 -3 6 4 9 1 6 -7 -3 -8 9 -41 26 -74 34 -68 34 -69 42 -182 12 -157
-41 -374 -125 -518 -50 -85 -53 -67 -7 41 111 264 116 558 12 666 -19 20 -37
31 -38 26 -3 -7 -10 -7 -23 0 -47 26 -267 132 -273 132 -4 0 2 -7 12 -15 11
-8 15 -15 9 -15 -7 0 -18 7 -27 15 -16 17 -41 21 -31 5 10 -16 -1 -11 -16 7
-12 14 -12 16 0 8 10 -6 12 -4 7 4 -9 14 -43 28 -84 35 -26 5 -26 4 -7 -9 11
-8 50 -45 87 -81 73 -73 116 -149 143 -253 18 -71 15 -91 -15 -91 -12 0 -18 4
-15 10 9 15 -31 134 -59 178 -39 61 -83 105 -97 96 -7 -4 -10 -3 -5 4 6 10
-90 94 -174 152 -19 14 -44 32 -55 41 -11 10 -56 46 -100 80 -44 35 -82 66
-85 69 -3 3 -54 50 -115 105 -60 55 -132 121 -160 146 -228 211 -298 253 -360
217z m237 -517 c40 -38 84 -79 98 -91 53 -45 262 -255 272 -273 5 -10 7 -21 4
-25 -4 -3 -46 10 -94 30 -48 20 -89 34 -92 31 -11 -11 93 -93 170 -134 106
-56 115 -77 33 -81 l-58 -3 57 -43 c66 -49 108 -91 108 -109 0 -18 -16 -16
-79 7 -71 28 -99 22 -49 -8 42 -26 96 -89 122 -141 22 -46 21 -51 -13 -48 -16
1 -27 5 -24 9 2 4 -13 15 -34 24 -79 35 -141 69 -238 133 -55 37 -112 72 -127
78 -16 7 -28 17 -28 23 0 14 0 14 82 -19 40 -15 98 -31 128 -34 l55 -6 -58 54
c-32 30 -98 103 -147 162 -68 82 -86 109 -74 113 11 4 1 20 -43 61 -32 30 -67
60 -78 66 -11 7 -16 15 -12 19 4 5 22 0 40 -9 27 -15 167 -59 167 -54 0 5 -98
113 -147 163 -29 30 -53 56 -53 60 0 8 23 1 73 -20 43 -19 43 -19 -8 54 -71
101 -51 105 47 11z m3342 22 c-15 -27 -34 -58 -42 -70 -14 -22 -14 -22 15 -8
39 19 103 30 103 17 0 -6 -15 -20 -33 -31 -18 -11 -48 -39 -67 -63 -19 -24
-54 -64 -79 -91 -24 -26 -42 -50 -39 -52 7 -7 115 32 156 55 19 12 37 18 40
15 3 -2 -19 -31 -49 -64 -30 -32 -69 -83 -88 -114 -40 -65 -186 -215 -251
-257 -25 -16 -67 -34 -95 -41 -27 -6 -69 -17 -92 -24 -66 -19 -56 3 43 102 57
57 79 83 63 78 -47 -15 -99 -18 -99 -5 0 19 38 47 130 95 84 44 167 104 125
90 -21 -7 -25 -8 -109 -21 -48 -7 -49 -7 -35 13 30 43 405 422 417 422 10 1 5
-14 -14 -46z m-2509 -201 c-3 -3 -11 0 -18 7 -9 10 -8 11 6 5 10 -3 15 -9 12
-12z m16 -29 c13 -16 12 -17 -3 -4 -10 7 -18 15 -18 17 0 8 8 3 21 -13z m1513
-18 c-10 -8 -23 -14 -29 -14 -5 0 -1 6 9 14 11 8 24 15 30 15 5 0 1 -7 -10
-15z m-1394 0 c0 -2 -9 -9 -19 -15 -14 -7 -22 -7 -27 2 -4 6 -3 8 4 4 6 -3 13
-2 17 4 6 10 25 14 25 5z m24 -21 c3 -8 2 -12 -4 -9 -6 3 -10 10 -10 16 0 14
7 11 14 -7z m36 -19 c0 -8 -2 -15 -4 -15 -2 0 -6 7 -10 15 -3 8 -1 15 4 15 6
0 10 -7 10 -15z m106 -52 c-5 -5 -86 32 -86 39 0 4 20 -2 45 -14 24 -12 43
-23 41 -25z m739 37 c-3 -5 -11 -10 -16 -10 -6 0 -7 5 -4 10 3 6 11 10 16 10
6 0 7 -4 4 -10z m-398 -46 c-3 -3 -12 -4 -19 -1 -8 3 -5 6 6 6 11 1 17 -2 13
-5z m1793 -294 c0 -5 -17 -20 -37 -33 -21 -13 -74 -47 -118 -75 -92 -58 -322
-168 -332 -158 -12 12 14 52 80 122 l72 76 90 2 c80 2 98 6 165 39 41 19 76
36 78 36 1 1 2 -3 2 -9z m-3021 -191 c24 -10 48 -16 54 -12 5 3 7 2 4 -4 -3
-5 16 -23 43 -39 27 -16 57 -44 67 -61 11 -21 23 -31 33 -28 37 11 156 23 182
18 47 -9 41 -21 -14 -28 -136 -16 -235 -49 -380 -127 -32 -17 -61 -28 -65 -24
-3 3 -4 8 -2 10 10 9 127 85 157 102 17 10 32 23 32 30 0 17 -109 117 -162
148 -83 48 -49 58 51 15z m2921 17 c0 -2 -29 -17 -64 -35 -34 -17 -92 -57
-127 -90 l-64 -59 29 -11 c16 -7 67 -36 114 -67 59 -39 82 -58 74 -66 -7 -7
-19 -4 -39 10 -86 61 -290 133 -395 140 -43 2 -78 8 -78 13 0 14 70 22 156 16
46 -2 84 -1 84 4 0 23 75 89 123 108 74 29 187 52 187 37z m-2774 -69 c8 3 14
3 14 0 0 -14 -30 -14 -41 1 -11 14 -11 15 0 5 7 -6 20 -9 27 -6z m52 -55 c2
-7 -1 -12 -8 -12 -6 0 -9 4 -6 9 4 5 1 12 -4 14 -6 3 -5 4 2 3 6 -1 14 -8 16
-14z m106 -208 c33 -13 14 -24 -38 -24 -143 0 -315 -45 -468 -121 -124 -62
-132 -47 -15 28 69 44 156 83 247 108 46 14 246 20 274 9z m2434 -9 c66 -13
135 -37 212 -73 57 -26 146 -85 134 -89 -6 -2 -57 15 -113 37 -176 71 -333
110 -442 110 -55 0 -84 12 -57 23 28 11 201 6 266 -8z m-567 -325 c-24 -82
-94 -267 -127 -332 -20 -39 -23 -53 -13 -64 9 -12 9 -13 -2 -9 -9 3 -29 -21
-58 -70 -25 -41 -59 -91 -78 -112 -18 -21 -33 -41 -33 -45 0 -4 -6 -13 -12
-20 -21 -22 -35 -51 -43 -87 -6 -29 -5 -33 9 -28 11 5 16 1 16 -14 0 -11 7
-22 15 -25 8 -4 15 -12 15 -20 0 -8 5 -14 10 -14 6 0 3 -11 -6 -25 -10 -15
-12 -25 -5 -25 6 0 11 6 11 14 0 8 4 16 8 18 12 5 136 187 159 233 11 22 32
74 47 115 15 41 29 82 32 90 11 30 22 -11 13 -49 -13 -54 -12 -55 27 -17 20
19 42 32 49 30 7 -3 19 1 26 8 8 8 40 15 73 16 32 1 64 6 70 10 9 7 150 9 159
3 7 -6 84 -5 81 1 -8 13 14 18 38 8 22 -10 22 -10 -4 -5 -22 4 -25 2 -21 -14
3 -13 11 -17 26 -14 18 4 19 3 7 -6 -8 -6 -11 -11 -6 -11 16 0 80 43 119 79
l38 36 -12 -33 c-6 -19 -18 -36 -26 -39 -8 -3 -12 -11 -9 -19 3 -7 -2 -18 -10
-24 -8 -7 -14 -9 -14 -4 0 4 -14 -6 -31 -24 -19 -19 -28 -36 -23 -44 4 -7 4
-10 -1 -6 -4 4 -13 2 -19 -5 -17 -17 -46 -60 -46 -68 0 -11 51 -29 62 -23 7 4
8 2 4 -4 -4 -7 -1 -12 9 -12 8 0 23 -4 33 -10 9 -5 80 -34 157 -65 230 -89
388 -182 529 -309 96 -86 61 -84 -54 4 -58 44 -108 80 -111 80 -4 0 -36 17
-70 38 -123 73 -324 153 -424 167 -35 5 -37 4 -17 -6 12 -7 22 -16 22 -21 0
-4 7 -8 17 -8 9 0 13 -3 9 -7 -8 -8 -13 -9 -41 -12 -8 0 -15 -7 -15 -13 0 -7
-16 -30 -35 -52 -19 -21 -35 -46 -35 -55 0 -9 -11 -33 -25 -53 -14 -20 -25
-44 -25 -52 0 -9 -4 -16 -8 -16 -12 0 -72 -88 -72 -105 0 -9 -6 -12 -15 -8
-18 6 -58 -25 -49 -38 3 -5 -4 -9 -14 -9 -11 0 -25 -7 -32 -16 -17 -19 -75
-44 -105 -44 -12 0 -32 -9 -45 -20 -13 -11 -37 -20 -56 -20 -24 0 -37 -6 -45
-21 -8 -16 -17 -20 -38 -16 -39 8 -69 -2 -77 -25 -4 -13 -12 -18 -23 -15 -18
4 -41 -21 -41 -47 0 -8 -7 -16 -15 -20 -8 -3 -15 -13 -15 -23 0 -10 -10 3 -23
29 -12 27 -25 48 -29 48 -4 0 14 -46 39 -102 25 -57 72 -170 105 -253 33 -82
62 -156 65 -162 8 -21 20 -15 28 15 16 66 67 150 127 210 59 59 237 188 338
244 25 14 68 38 95 54 28 16 63 36 78 44 40 20 77 67 78 98 0 15 2 38 5 51 10
54 -67 259 -105 281 -9 5 -13 11 -10 14 10 10 169 -52 262 -102 107 -58 257
-163 257 -179 0 -18 -13 -16 -41 5 -32 24 -174 105 -274 157 -45 22 -92 49
-105 58 -14 9 -27 17 -31 17 -4 0 11 -35 31 -77 46 -94 60 -163 60 -303 0
-110 -14 -184 -52 -277 -11 -28 -18 -58 -15 -65 3 -8 26 -21 51 -28 25 -7 46
-16 46 -19 0 -4 -17 -15 -37 -25 -21 -10 -85 -45 -143 -79 -246 -143 -346
-236 -435 -409 -39 -74 -50 -88 -70 -88 -14 0 -25 3 -25 6 0 11 85 191 117
245 17 31 50 80 73 110 56 75 30 77 -38 3 -37 -41 -74 -101 -122 -200 -39 -77
-70 -144 -70 -149 0 -4 7 -4 16 -1 14 5 15 4 4 -9 -7 -8 -17 -15 -22 -15 -5 0
-28 -9 -50 -20 -23 -11 -47 -20 -54 -20 -14 0 -29 -18 -21 -26 2 -2 25 5 51
16 58 25 70 25 61 3 -13 -34 -16 -65 -5 -58 5 3 10 11 10 17 0 19 50 78 66 78
18 0 18 1 -6 -53 -26 -58 -47 -79 -71 -72 -12 4 -19 2 -19 -7 0 -9 -14 -13
-42 -14 -23 0 -43 -5 -46 -12 -2 -7 -8 -12 -13 -12 -6 0 -7 5 -4 10 4 6 -5 5
-19 -2 -14 -6 -26 -17 -26 -24 0 -9 12 -7 48 6 52 19 156 35 150 23 -22 -46
-33 -63 -40 -63 -4 0 -8 -7 -8 -16 0 -23 -64 -107 -117 -154 -52 -45 -158
-100 -195 -100 -17 0 -31 -11 -48 -41 -62 -101 -122 -158 -199 -185 -25 -9
-57 -21 -71 -27 -37 -16 -199 -18 -235 -2 -137 59 -160 73 -207 124 -27 29
-52 67 -55 82 -3 16 -6 29 -7 29 -1 0 -42 14 -91 31 -102 36 -208 109 -246
172 -13 20 -27 37 -31 37 -5 0 -8 6 -8 13 0 7 -12 30 -26 51 -18 27 -23 41
-15 49 7 7 15 6 26 -3 9 -7 15 -8 15 -2 0 7 10 7 28 2 81 -26 127 -38 131 -35
8 8 -22 36 -34 31 -7 -2 -17 0 -22 5 -5 5 -21 10 -36 11 -15 1 -27 6 -27 10 0
4 -23 10 -51 14 -50 7 -50 7 -78 68 -15 33 -27 62 -26 64 8 10 58 -14 65 -32
7 -17 9 -18 9 -3 1 22 9 21 62 -3 46 -20 74 -26 65 -12 -3 4 -36 23 -75 42
-39 19 -66 37 -60 41 21 13 -71 204 -140 288 -66 82 -139 147 -87 78 79 -106
124 -187 173 -311 28 -72 27 -66 3 -66 -14 0 -28 17 -51 61 -81 161 -178 259
-383 388 -81 50 -167 101 -191 113 -25 12 -45 27 -45 34 0 6 21 15 46 19 25 3
48 13 51 21 3 8 -9 47 -27 86 -36 81 -49 171 -43 288 7 137 28 209 91 310 27
42 27 51 5 43 -29 -11 -394 -213 -425 -235 -16 -11 -34 -18 -41 -15 -42 14
266 211 412 263 29 10 56 24 58 31 3 7 9 11 14 8 4 -3 13 4 19 15 6 11 15 18
21 15 5 -4 9 -1 9 5 0 6 5 8 10 5 6 -4 10 7 10 24 0 27 -4 31 -27 32 l-28 1
30 8 c22 6 25 8 10 10 -15 2 -12 4 10 10 29 7 28 8 -11 9 -114 3 -360 -104
-602 -262 -73 -48 -137 -87 -142 -87 -19 0 -10 16 20 33 16 10 35 23 42 30 13
12 97 75 158 118 119 84 293 173 430 219 117 40 170 62 170 72 0 5 7 8 16 8
15 0 14 3 -2 28 -9 15 -25 36 -35 47 -40 46 -106 121 -126 145 -22 23 -29 40
-18 40 3 0 26 -16 52 -36 48 -36 134 -81 163 -85 8 -1 28 -1 44 0 25 1 27 3
15 18 -8 10 -9 14 -2 10 6 -4 14 -4 17 1 2 4 84 8 180 7 108 0 178 4 181 10 2
6 2 -2 -1 -16 -3 -15 -1 -30 5 -33 7 -5 9 0 5 11 -5 17 -5 17 9 1 19 -23 27
-13 17 21 -4 16 -5 34 0 40 4 7 16 -13 30 -51 62 -173 63 -174 72 -153 7 16 7
15 3 -7 -4 -20 3 -36 30 -69 20 -23 41 -51 47 -63 6 -12 14 -23 17 -26 3 -3
17 -25 30 -50 35 -66 38 -68 69 -37 24 24 27 35 27 90 -1 71 -12 95 -86 194
-63 83 -84 126 -139 273 -23 63 -54 140 -67 170 -44 95 -74 193 -63 204 6 6
18 -10 35 -48 14 -32 41 -82 60 -112 19 -30 35 -56 35 -59 0 -3 16 -30 36 -62
70 -108 194 -377 210 -454 18 -87 14 -135 -23 -241 -14 -43 -23 -81 -19 -85 4
-5 30 17 57 47 l50 55 -7 -35 c-3 -19 -15 -52 -25 -72 -11 -21 -15 -38 -9 -38
5 0 10 6 10 13 0 6 5 4 11 -6 6 -10 7 -32 3 -50 l-6 -32 21 19 21 19 0 -100
c0 -141 -15 -280 -52 -478 -27 -142 -32 -195 -33 -320 0 -101 4 -162 13 -188
l14 -38 40 42 c75 77 105 84 328 82 237 -3 266 -9 331 -76 l48 -49 15 53 c35
116 27 278 -21 447 -25 92 -42 225 -49 410 -6 133 -4 172 5 172 8 0 10 8 6 23
-4 15 -4 18 3 8 5 -7 15 -10 21 -7 7 5 17 -6 26 -26 10 -24 14 -27 15 -13 0
11 -6 29 -14 40 -24 36 -73 132 -80 158 -3 14 -9 32 -12 41 -3 9 -1 16 4 16 6
0 14 -9 17 -21 8 -24 73 -99 86 -99 14 0 10 33 -11 95 -36 106 -20 216 56 382
13 30 24 56 24 60 0 7 91 168 140 248 20 33 47 76 58 95 12 19 41 72 63 118
23 46 46 79 50 75 4 -4 0 -37 -10 -73z m-211 -156 c0 -16 -65 -125 -86 -145
-36 -34 -41 -15 -7 28 17 21 40 57 52 81 18 36 41 56 41 36z m-1051 -58 c14
-29 27 -44 34 -40 7 4 9 4 5 -1 -4 -4 2 -19 12 -33 29 -36 15 -41 -21 -6 -33
31 -69 93 -69 119 0 25 13 11 39 -39z m801 -166 c0 -5 -18 -73 -40 -151 -22
-78 -40 -150 -40 -160 0 -10 -5 -21 -12 -25 -22 -14 0 123 39 236 20 60 41
110 45 110 4 0 8 -4 8 -10z m-575 -97 c30 -92 41 -242 18 -250 -9 -3 -13 10
-13 47 0 28 -11 101 -25 162 -14 61 -25 118 -25 126 0 31 18 -3 45 -85z m-959
22 c10 -8 15 -14 9 -14 -5 0 -19 6 -29 14 -11 8 -15 15 -10 15 6 0 19 -7 30
-15z m1788 -91 c3 -8 2 -12 -4 -9 -6 3 -10 10 -10 16 0 14 7 11 14 -7z m729
-10 c-7 -3 -9 -12 -6 -20 3 -8 -1 -14 -11 -14 -9 0 -16 -5 -16 -11 0 -5 5 -7
10 -4 6 3 10 1 10 -4 0 -13 -10 -14 -29 -2 -11 7 -10 13 4 35 10 14 25 26 34
25 9 0 11 -3 4 -5z m-670 -56 c-4 -13 -12 -32 -20 -43 -15 -22 -18 -14 -4 13
5 9 12 25 15 35 8 25 15 21 9 -5z m-136 -23 c0 -8 -4 -12 -9 -9 -5 3 -6 10 -3
15 9 13 12 11 12 -6z m953 -45 c18 -12 2 -12 -25 0 -13 6 -15 9 -5 9 8 0 22
-4 30 -9z m-886 -48 c-5 -4 -20 -24 -33 -44 -24 -41 -34 -49 -24 -20 11 30 44
72 56 72 8 0 9 -3 1 -8z m-1937 -48 c-3 -3 -12 -4 -19 -1 -8 3 -5 6 6 6 11 1
17 -2 13 -5z m993 -158 c0 -2 -7 -9 -15 -16 -13 -11 -14 -10 -9 4 5 14 24 23
24 12z m2100 -319 c30 -24 102 -79 160 -122 127 -96 149 -115 265 -230 88 -87
126 -135 107 -135 -6 0 -25 17 -44 38 -77 85 -248 218 -359 280 -71 40 -82 48
-129 90 -61 55 -95 122 -62 122 4 0 32 -19 62 -43z m-3320 -155 c0 -5 -26 -22
-57 -39 -218 -115 -282 -150 -312 -170 -35 -24 -51 -29 -51 -15 0 14 170 125
274 179 94 48 146 64 146 45z m3270 -497 c109 -40 231 -98 296 -141 71 -47 56
-56 -25 -14 -34 16 -85 39 -114 50 -28 11 -61 25 -72 30 -46 21 -149 60 -200
75 -84 24 -107 34 -101 44 8 12 126 -12 216 -44z m-3120 36 c0 -5 -17 -15 -37
-22 -151 -48 -418 -164 -456 -197 -12 -11 -21 -12 -28 -5 -24 24 163 126 341
186 142 48 180 56 180 38z m-30 -250 c0 -4 -30 -26 -66 -47 -37 -21 -89 -63
-116 -93 -95 -104 -144 -207 -212 -451 l-16 -55 6 98 c8 145 68 304 154 406
69 82 250 185 250 142z m2560 -723 c42 -57 106 -193 115 -243 8 -50 4 -45 -26
25 -23 53 -71 144 -118 223 -31 51 -10 47 29 -5z m-2080 21 c0 -6 -9 -23 -20
-39 -11 -15 -33 -56 -50 -91 -26 -55 -30 -76 -30 -146 0 -92 -13 -108 -27 -35
l-10 47 -22 -50 c-28 -63 -51 -149 -51 -193 0 -53 -22 -162 -33 -162 -17 0 -1
228 21 300 26 88 104 241 161 317 45 61 61 75 61 52z m510 -869 c0 -100 53
-351 99 -473 16 -42 14 -43 -14 -11 -79 91 -146 396 -115 524 16 67 30 49 30
-40z m527 -1127 c1 -24 0 -25 -6 -8 -7 17 -6 35 2 35 2 0 3 -12 4 -27z m-56
-10 c-8 -15 -10 -15 -11 -2 0 17 10 32 18 25 2 -3 -1 -13 -7 -23z m38 -47 c1
-5 -5 -3 -13 4 -8 6 -12 19 -9 27 6 14 8 14 14 -3 4 -10 8 -23 8 -28z"/>
<path d="M3965 6220 c27 -12 43 -12 25 0 -8 5 -22 9 -30 9 -10 0 -8 -3 5 -9z"/>
<path d="M4370 6205 c0 -8 4 -15 10 -15 5 0 7 7 4 15 -4 8 -8 15 -10 15 -2 0
-4 -7 -4 -15z"/>
<path d="M4028 6203 c7 -3 16 -2 19 1 4 3 -2 6 -13 5 -11 0 -14 -3 -6 -6z"/>
<path d="M5820 6160 c-9 -6 -10 -10 -3 -10 6 0 15 5 18 10 8 12 4 12 -15 0z"/>
<path d="M6378 5953 c12 -2 30 -2 40 0 9 3 -1 5 -23 4 -22 0 -30 -2 -17 -4z"/>
<path d="M3832 5941 c-11 -7 -10 -9 3 -14 9 -4 13 -3 10 2 -3 5 3 12 12 14 13
3 14 5 3 6 -8 0 -21 -3 -28 -8z"/>
<path d="M6400 5936 c0 -10 28 -13 41 -5 10 6 7 9 -13 9 -16 0 -28 -2 -28 -4z"/>
<path d="M5510 5907 c0 -13 10 -35 22 -48 16 -18 19 -19 15 -6 -4 10 -7 25 -7
33 0 9 -5 12 -12 8 -8 -5 -9 -2 -5 9 3 9 2 19 -3 22 -6 4 -10 -5 -10 -18z"/>
<path d="M3734 5798 c-3 -4 0 -17 7 -29 8 -15 8 -19 0 -15 -11 7 -15 -6 -11
-34 1 -8 -2 -12 -6 -7 -12 12 -52 -77 -64 -144 -10 -55 -9 -88 6 -141 3 -10
38 -35 77 -56 100 -54 313 -179 366 -215 24 -16 74 -59 112 -95 66 -62 99
-115 148 -236 7 -16 13 -27 15 -25 2 2 17 38 34 79 17 41 51 125 77 185 25 61
47 117 49 125 2 8 10 31 19 50 8 19 12 36 7 38 -5 2 -6 11 -3 19 5 12 2 15 -9
11 -9 -4 -21 4 -32 23 -13 22 -25 29 -47 29 -29 0 -40 14 -16 23 6 3 3 6 -8 7
-63 5 -235 42 -231 49 2 3 -11 13 -30 22 -18 9 -30 11 -27 5 4 -6 0 -6 -9 1
-8 7 -17 10 -20 7 -3 -3 -14 6 -25 19 -10 13 -33 32 -51 41 -18 9 -32 22 -32
29 -1 6 -18 26 -40 42 -21 17 -47 48 -59 70 -11 22 -21 36 -21 31 0 -5 -16 12
-35 37 -19 25 -35 50 -35 55 0 10 -100 11 -106 0z m806 -549 c0 -5 -4 -9 -10
-9 -5 0 -10 7 -10 16 0 8 5 12 10 9 6 -3 10 -10 10 -16z"/>
<path d="M5471 5594 c0 -11 3 -14 6 -6 3 7 2 16 -1 19 -3 4 -6 -2 -5 -13z"/>
<path d="M5602 5498 c-18 -35 -32 -72 -32 -83 1 -11 8 0 16 24 9 25 27 62 40
83 13 21 21 38 16 38 -4 0 -22 -28 -40 -62z"/>
<path d="M5461 5534 c0 -11 3 -14 6 -6 3 7 2 16 -1 19 -3 4 -6 -2 -5 -13z"/>
<path d="M4627 5466 c-3 -8 -2 -27 2 -42 6 -22 9 -25 14 -11 3 9 2 19 -2 22
-5 3 -7 14 -4 25 6 23 -2 27 -10 6z"/>
<path d="M4599 5379 c-1 -8 -1 -23 0 -34 2 -20 1 -20 -14 -1 -17 23 -22 2 -5
-24 9 -13 11 -13 20 0 5 8 10 20 10 27 0 6 5 13 11 15 7 2 5 9 -5 17 -13 11
-16 11 -17 0z"/>
<path d="M5461 5374 c0 -11 3 -14 6 -6 3 7 2 16 -1 19 -3 4 -6 -2 -5 -13z"/>
<path d="M6498 5336 c-10 -7 -14 -17 -10 -21 4 -5 1 -5 -5 -1 -7 4 -37 -6 -65
-22 -83 -45 -163 -95 -166 -104 -2 -4 -8 -8 -14 -8 -15 0 -166 -102 -208 -141
-32 -29 -33 -31 -10 -25 52 14 168 19 200 8 36 -13 80 3 111 42 36 43 192 276
188 280 -2 3 -12 -1 -21 -8z"/>
<path d="M3734 5293 c57 -85 180 -248 195 -259 10 -7 44 -10 95 -7 45 3 106 1
136 -5 30 -6 56 -9 58 -8 9 10 -97 94 -201 158 -130 81 -289 168 -306 168 -5
0 5 -21 23 -47z"/>
<path d="M5640 5334 c0 -5 7 -19 15 -30 8 -10 15 -14 15 -8 0 5 -7 19 -15 30
-8 10 -15 14 -15 8z"/>
<path d="M5470 5269 c0 -65 15 -168 45 -319 19 -95 31 -121 21 -46 -3 27 -3
47 0 43 4 -3 15 4 24 16 18 22 32 127 18 127 -5 0 -8 -15 -8 -32 0 -18 -5 -40
-11 -48 -8 -11 -9 -7 -5 17 3 18 1 35 -4 38 -6 3 -10 1 -10 -6 0 -7 -3 -9 -7
-6 -4 4 -5 32 -4 63 2 42 0 54 -10 49 -9 -6 -10 0 -5 26 5 28 5 31 -6 16 -12
-16 -13 -16 -14 5 -4 49 -13 110 -18 116 -3 3 -6 -24 -6 -59z m37 -161 c-3 -7
-5 -2 -5 12 0 14 2 19 5 13 2 -7 2 -19 0 -25z"/>
<path d="M5502 5255 c0 -16 2 -22 5 -12 2 9 2 23 0 30 -3 6 -5 -1 -5 -18z"/>
<path d="M4733 5215 c0 -22 2 -30 4 -17 2 12 2 30 0 40 -3 9 -5 -1 -4 -23z"/>
<path d="M5560 5210 c0 -5 5 -10 11 -10 5 0 7 5 4 10 -3 6 -8 10 -11 10 -2 0
-4 -4 -4 -10z"/>
<path d="M4722 5110 c0 -19 2 -27 5 -17 2 9 2 25 0 35 -3 9 -5 1 -5 -18z"/>
<path d="M5551 5104 c0 -11 3 -14 6 -6 3 7 2 16 -1 19 -3 4 -6 -2 -5 -13z"/>
<path d="M4712 5045 c0 -16 2 -22 5 -12 2 9 2 23 0 30 -3 6 -5 -1 -5 -18z"/>
<path d="M4702 4985 c0 -16 2 -22 5 -12 2 9 2 23 0 30 -3 6 -5 -1 -5 -18z"/>
<path d="M5556 4934 c-4 -14 -5 -28 -3 -31 3 -2 8 8 11 23 4 14 5 28 3 31 -3
2 -8 -8 -11 -23z"/>
<path d="M4741 4445 c-1 -58 26 -163 54 -210 37 -63 86 -103 186 -153 115 -58
121 -74 39 -114 -56 -27 -119 -44 -220 -59 -34 -4 38 -7 185 -6 132 1 303 -2
380 -7 77 -5 137 -6 134 -3 -3 4 -21 9 -40 11 -75 10 -187 37 -244 59 -51 20
-60 27 -63 50 -3 24 2 30 45 49 78 34 191 117 226 167 45 62 54 87 62 162 6
53 4 67 -9 78 -13 11 -16 11 -16 0 0 -8 -5 -31 -11 -53 l-11 -38 -32 35 c-43
47 -104 59 -311 60 -158 1 -164 0 -219 -27 -31 -15 -61 -36 -66 -47 -12 -21
-30 -25 -30 -6 0 6 -9 30 -19 52 l-19 40 -1 -40z m249 -196 c18 -42 3 -51 -45
-27 -22 11 -51 23 -65 27 -37 11 -30 33 15 46 48 14 76 0 95 -46z m355 32 c45
-9 36 -32 -20 -52 -70 -24 -95 -24 -95 2 0 54 31 68 115 50z"/>
<path d="M4310 4331 c0 -6 4 -13 10 -16 6 -3 7 1 4 9 -7 18 -14 21 -14 7z"/>
<path d="M5787 4132 c-23 -21 -76 -61 -117 -88 -62 -40 -71 -50 -52 -52 33 -5
108 47 170 118 61 69 61 77 -1 22z"/>
<path d="M4435 4089 c57 -58 126 -109 149 -109 32 0 15 19 -56 63 -40 25 -84
57 -97 71 -14 14 -29 26 -35 26 -6 0 12 -23 39 -51z"/>
<path d="M4770 3868 c0 -15 107 -87 151 -101 162 -54 407 -18 494 73 l29 30
-110 3 c-223 5 -564 2 -564 -5z"/>
<path d="M6759 8673 c-13 -16 -12 -17 4 -4 9 7 17 15 17 17 0 8 -8 3 -21 -13z"/>
<path d="M2130 8600 c0 -29 4 -40 15 -40 9 0 15 9 15 22 0 12 7 30 17 40 15
17 14 18 -15 18 -31 0 -32 -2 -32 -40z"/>
<path d="M7980 8630 c0 -5 5 -10 10 -10 6 0 10 5 10 10 0 6 -4 10 -10 10 -5 0
-10 -4 -10 -10z"/>
<path d="M8036 8545 c4 -8 10 -15 14 -15 4 0 10 7 14 15 4 10 -1 15 -14 15
-13 0 -18 -5 -14 -15z"/>
<path d="M7142 8480 c0 -14 2 -19 5 -12 2 6 2 18 0 25 -3 6 -5 1 -5 -13z"/>
<path d="M1936 8385 c4 -8 10 -15 14 -15 4 0 10 7 14 15 4 10 -1 15 -14 15
-13 0 -18 -5 -14 -15z"/>
<path d="M1840 8335 c0 -8 5 -15 10 -15 6 0 10 7 10 15 0 8 -4 15 -10 15 -5 0
-10 -7 -10 -15z"/>
<path d="M8416 8305 c3 -8 14 -17 25 -20 10 -4 19 -15 19 -26 0 -10 5 -19 10
-19 6 0 10 -7 10 -16 0 -9 5 -14 12 -12 18 6 21 28 4 28 -10 0 -16 9 -16 25 0
14 -4 25 -10 25 -5 0 -10 7 -10 15 0 9 -9 15 -25 15 -17 0 -23 -4 -19 -15z"/>
<path d="M8300 8255 c0 -8 5 -15 10 -15 6 0 10 7 10 15 0 8 -4 15 -10 15 -5 0
-10 -7 -10 -15z"/>
<path d="M1665 8170 c-3 -5 -1 -10 4 -10 6 0 11 5 11 10 0 6 -2 10 -4 10 -3 0
-8 -4 -11 -10z"/>
<path d="M1760 8151 c0 -12 5 -21 10 -21 6 0 10 6 10 14 0 8 -4 18 -10 21 -5
3 -10 -3 -10 -14z"/>
<path d="M8430 8120 c0 -22 5 -40 10 -40 6 0 10 18 10 40 0 22 -4 40 -10 40
-5 0 -10 -18 -10 -40z"/>
<path d="M7990 8095 c0 -5 5 -17 10 -25 5 -8 10 -10 10 -5 0 6 -5 17 -10 25
-5 8 -10 11 -10 5z"/>
<path d="M8720 8026 c0 -14 -4 -26 -10 -26 -5 0 -10 -7 -10 -15 0 -8 5 -15 10
-15 6 0 10 7 10 15 0 8 5 15 10 15 6 0 10 9 10 19 0 11 -4 23 -10 26 -6 4 -10
-5 -10 -19z"/>
<path d="M5917 8019 c7 -7 15 -10 18 -7 3 3 -2 9 -12 12 -14 6 -15 5 -6 -5z"/>
<path d="M1600 7960 c0 -29 4 -40 15 -40 11 0 15 11 15 40 0 29 -4 40 -15 40
-11 0 -15 -11 -15 -40z"/>
<path d="M1520 7830 c0 -5 5 -10 10 -10 6 0 10 5 10 10 0 6 -4 10 -10 10 -5 0
-10 -4 -10 -10z"/>
<path d="M1820 7825 c0 -8 5 -15 10 -15 6 0 10 7 10 15 0 8 -4 15 -10 15 -5 0
-10 -7 -10 -15z"/>
<path d="M1790 7775 c0 -8 5 -15 10 -15 6 0 10 7 10 15 0 8 -4 15 -10 15 -5 0
-10 -7 -10 -15z"/>
<path d="M8717 7766 c-4 -10 0 -12 14 -9 22 6 26 23 5 23 -8 0 -16 -6 -19 -14z"/>
<path d="M1440 7664 c0 -14 3 -14 15 -4 8 7 15 14 15 16 0 2 -7 4 -15 4 -8 0
-15 -7 -15 -16z"/>
<path d="M8873 7480 c0 -25 2 -35 4 -22 2 12 2 32 0 45 -2 12 -4 2 -4 -23z"/>
<path d="M1230 7425 c0 -8 5 -15 10 -15 6 0 10 7 10 15 0 8 -4 15 -10 15 -5 0
-10 -7 -10 -15z"/>
<path d="M8900 7432 c0 -5 6 -17 14 -27 12 -16 16 -17 30 -6 26 22 19 41 -14
41 -16 0 -30 -4 -30 -8z"/>
<path d="M1190 7370 c-12 -23 -6 -40 16 -40 9 0 14 11 14 30 0 35 -14 39 -30
10z"/>
<path d="M1120 7356 c0 -22 3 -27 11 -19 8 8 8 16 0 30 -9 16 -10 14 -11 -11z"/>
<path d="M1570 7350 c0 -5 5 -10 11 -10 5 0 7 5 4 10 -3 6 -8 10 -11 10 -2 0
-4 -4 -4 -10z"/>
<path d="M8940 7351 c0 -6 5 -13 10 -16 6 -3 10 1 10 9 0 9 -4 16 -10 16 -5 0
-10 -4 -10 -9z"/>
<path d="M1147 7304 c-4 -4 -6 -30 -5 -58 1 -50 2 -51 5 -8 3 29 9 42 19 42 9
0 14 5 12 12 -5 14 -22 21 -31 12z"/>
<path d="M8960 7293 c0 -10 7 -27 15 -37 8 -11 15 -30 15 -42 0 -13 11 -40 25
-60 l25 -37 0 44 c0 24 -7 53 -15 63 -8 11 -15 27 -15 35 0 9 -12 24 -25 34
-24 17 -25 17 -25 0z"/>
<path d="M1550 7270 c0 -5 5 -10 10 -10 6 0 10 5 10 10 0 6 -4 10 -10 10 -5 0
-10 -4 -10 -10z"/>
<path d="M1068 7155 c-4 -50 -1 -65 13 -65 5 0 9 25 9 55 0 66 -16 74 -22 10z"/>
<path d="M9065 7130 c-3 -5 3 -10 15 -10 12 0 18 5 15 10 -3 6 -10 10 -15 10
-5 0 -12 -4 -15 -10z"/>
<path d="M1120 7104 c0 -14 3 -14 15 -4 8 7 15 14 15 16 0 2 -7 4 -15 4 -8 0
-15 -7 -15 -16z"/>
<path d="M990 6920 c0 -27 -4 -40 -14 -40 -10 0 -16 -21 -21 -76 -4 -41 -4
-78 -1 -81 3 -4 6 5 6 19 0 14 7 31 15 38 9 8 15 30 15 56 0 37 3 44 20 44 17
0 20 7 20 40 0 33 -3 40 -20 40 -17 0 -20 -7 -20 -40z"/>
<path d="M9203 6720 c0 -47 2 -66 4 -42 2 23 2 61 0 85 -2 23 -4 4 -4 -43z"/>
<path d="M9273 6760 c0 -25 2 -35 4 -22 2 12 2 32 0 45 -2 12 -4 2 -4 -23z"/>
<path d="M9230 6600 c0 -22 5 -40 10 -40 6 0 10 18 10 40 0 22 -4 40 -10 40
-5 0 -10 -18 -10 -40z"/>
<path d="M880 6533 c0 -22 2 -25 10 -13 13 20 13 40 0 40 -5 0 -10 -12 -10
-27z"/>
<path d="M803 6440 c0 -25 2 -35 4 -22 2 12 2 32 0 45 -2 12 -4 2 -4 -23z"/>
<path d="M870 6440 c0 -22 -4 -40 -10 -40 -5 0 -10 -4 -10 -10 0 -5 7 -10 15
-10 11 0 15 12 15 50 0 28 -2 50 -5 50 -3 0 -5 -18 -5 -40z"/>
<path d="M750 6360 c0 -33 3 -40 20 -40 17 0 20 7 20 40 0 33 -3 40 -20 40
-17 0 -20 -7 -20 -40z"/>
<path d="M7175 6350 c3 -5 11 -10 16 -10 6 0 7 5 4 10 -3 6 -11 10 -16 10 -6
0 -7 -4 -4 -10z"/>
<path d="M9436 6245 c-3 -9 -5 -33 -5 -53 2 -33 2 -32 9 13 8 53 6 66 -4 40z"/>
<path d="M797 6163 c4 -72 3 -83 -11 -83 -12 0 -16 -10 -16 -40 0 -22 -4 -40
-10 -40 -5 0 -10 -18 -10 -40 0 -22 -4 -40 -10 -40 -5 0 -10 -18 -10 -40 0
-33 3 -40 20 -40 18 0 20 7 20 80 0 64 3 80 15 80 9 0 15 9 15 21 0 12 8 28
18 35 12 9 14 16 6 21 -6 5 -16 44 -22 88 l-10 80 5 -82z"/>
<path d="M9473 6043 c4 -64 11 -119 17 -123 6 -4 14 -60 17 -126 7 -116 7
-118 15 -59 6 41 4 99 -7 181 -9 71 -12 146 -9 182 7 60 6 62 -16 62 l-23 0 6
-117z"/>
<path d="M857 6023 c-12 -11 -8 -23 8 -23 8 0 15 7 15 15 0 16 -12 20 -23 8z"/>
<path d="M9593 5800 c0 -25 2 -35 4 -22 2 12 2 32 0 45 -2 12 -4 2 -4 -23z"/>
<path d="M710 5680 c0 -47 4 -80 10 -80 6 0 10 33 10 80 0 47 -4 80 -10 80 -6
0 -10 -33 -10 -80z"/>
<path d="M821 5598 c2 -78 2 -80 9 -33 12 72 11 115 0 115 -6 0 -9 -33 -9 -82z"/>
<path d="M7544 5646 c11 -9 24 -16 30 -16 12 0 7 5 -24 19 -24 11 -24 11 -6
-3z"/>
<path d="M9520 5520 c0 -47 4 -80 10 -80 6 0 10 8 10 19 0 10 3 46 6 80 6 52
5 61 -10 61 -13 0 -16 -12 -16 -80z"/>
<path d="M803 5440 c0 -47 2 -66 4 -42 2 23 2 61 0 85 -2 23 -4 4 -4 -43z"/>
<path d="M963 5480 c0 -25 2 -35 4 -22 2 12 2 32 0 45 -2 12 -4 2 -4 -23z"/>
<path d="M2298 5103 c7 -3 16 -2 19 1 4 3 -2 6 -13 5 -11 0 -14 -3 -6 -6z"/>
<path d="M713 4920 c0 -25 2 -35 4 -22 2 12 2 32 0 45 -2 12 -4 2 -4 -23z"/>
<path d="M2264 4891 c-2 -2 -1 -8 2 -12 8 -14 64 -11 64 4 0 11 -56 18 -66 8z"/>
<path d="M690 4600 c0 -29 4 -40 15 -40 11 0 15 11 15 40 0 29 -4 40 -15 40
-11 0 -15 -11 -15 -40z"/>
<path d="M2338 4633 c7 -3 16 -2 19 1 4 3 -2 6 -13 5 -11 0 -14 -3 -6 -6z"/>
<path d="M803 4440 c0 -25 2 -35 4 -22 2 12 2 32 0 45 -2 12 -4 2 -4 -23z"/>
<path d="M6914 4445 c20 -47 58 -175 71 -236 16 -77 51 -172 90 -249 16 -30
42 -102 60 -159 18 -57 35 -100 38 -94 15 24 18 118 7 204 -23 177 -109 365
-232 506 -23 27 -38 39 -34 28z"/>
<path d="M9363 4320 c0 -47 2 -66 4 -42 2 23 2 61 0 85 -2 23 -4 4 -4 -43z"/>
<path d="M9470 4280 c0 -73 4 -120 10 -120 6 0 10 18 10 40 0 22 5 40 10 40 6
0 10 33 10 80 0 73 -2 80 -20 80 -19 0 -20 -7 -20 -120z"/>
<path d="M2358 4373 c6 -2 18 -2 25 0 6 3 1 5 -13 5 -14 0 -19 -2 -12 -5z"/>
<path d="M7850 4370 c0 -5 5 -10 11 -10 5 0 7 5 4 10 -3 6 -8 10 -11 10 -2 0
-4 -4 -4 -10z"/>
<path d="M2358 4353 c7 -3 16 -2 19 1 4 3 -2 6 -13 5 -11 0 -14 -3 -6 -6z"/>
<path d="M2296 4341 c-3 -4 6 -6 19 -3 14 2 25 6 25 8 0 8 -39 4 -44 -5z"/>
<path d="M7771 4314 c0 -11 3 -14 6 -6 3 7 2 16 -1 19 -3 4 -6 -2 -5 -13z"/>
<path d="M810 4280 c0 -33 3 -40 20 -40 17 0 20 7 20 40 0 33 -3 40 -20 40
-17 0 -20 -7 -20 -40z"/>
<path d="M2380 4246 c0 -2 7 -9 15 -16 13 -11 14 -10 9 4 -5 14 -24 23 -24 12z"/>
<path d="M670 4200 c0 -22 5 -40 10 -40 6 0 10 18 10 40 0 22 -4 40 -10 40 -5
0 -10 -18 -10 -40z"/>
<path d="M2390 4190 c0 -5 5 -10 10 -10 6 0 10 5 10 10 0 6 -4 10 -10 10 -5 0
-10 -4 -10 -10z"/>
<path d="M2358 4174 c12 -8 28 -13 35 -11 7 3 5 6 -5 6 -10 1 -18 6 -18 11 0
6 -8 10 -17 10 -14 0 -13 -3 5 -16z"/>
<path d="M740 4125 c0 -19 9 -58 20 -87 13 -35 20 -77 20 -125 0 -61 3 -73 16
-73 14 0 15 10 9 78 -4 42 -11 82 -15 87 -5 6 -12 43 -15 83 -5 51 -12 72 -21
72 -9 0 -14 -12 -14 -35z"/>
<path d="M9432 4127 c-1 -21 -9 -51 -17 -67 -8 -16 -17 -51 -20 -77 -3 -26
-12 -53 -20 -59 -20 -15 -20 -84 0 -84 11 0 15 11 15 40 0 22 5 40 10 40 6 0
10 7 10 15 0 7 7 18 15 23 13 7 15 26 12 108 -1 54 -4 82 -5 61z"/>
<path d="M2408 4143 c7 -3 16 -2 19 1 4 3 -2 6 -13 5 -11 0 -14 -3 -6 -6z"/>
<path d="M2415 4100 c-18 -8 -17 -9 7 -9 15 -1 30 4 33 9 7 12 -12 12 -40 0z"/>
<path d="M9310 4040 c0 -22 5 -40 10 -40 6 0 10 18 10 40 0 22 -4 40 -10 40
-5 0 -10 -18 -10 -40z"/>
<path d="M722 4020 c0 -14 2 -19 5 -12 2 6 2 18 0 25 -3 6 -5 1 -5 -13z"/>
<path d="M2397 4019 c7 -7 15 -10 18 -7 3 3 -2 9 -12 12 -14 6 -15 5 -6 -5z"/>
<path d="M2555 3850 c-3 -5 -1 -10 4 -10 6 0 11 5 11 10 0 6 -2 10 -4 10 -3 0
-8 -4 -11 -10z"/>
<path d="M2473 3825 c-10 -10 -9 -14 1 -18 18 -7 54 19 43 29 -4 5 -12 2 -16
-5 -5 -8 -10 -9 -12 -3 -3 6 -9 5 -16 -3z"/>
<path d="M800 3788 c0 -16 5 -28 10 -28 13 0 13 20 0 40 -8 12 -10 9 -10 -12z"/>
<path d="M967 3738 c3 -29 10 -54 15 -56 4 -2 8 -21 8 -43 0 -21 5 -39 10 -39
6 0 10 32 10 78 -1 70 -3 79 -25 95 l-24 17 6 -52z"/>
<path d="M2480 3763 c0 -15 19 -37 26 -31 3 4 -1 14 -10 23 -9 9 -16 13 -16 8z"/>
<path d="M7591 3756 c2 -2 15 -9 29 -16 23 -12 24 -12 11 3 -7 10 -20 17 -29
17 -8 0 -13 -2 -11 -4z"/>
<path d="M2605 3740 c-3 -5 -1 -10 4 -10 6 0 11 5 11 10 0 6 -2 10 -4 10 -3 0
-8 -4 -11 -10z"/>
<path d="M830 3721 c0 -5 -3 -16 -6 -25 -4 -12 0 -16 16 -16 22 0 22 -2 15
-80 -6 -70 -5 -80 9 -80 10 0 16 -9 16 -23 0 -13 7 -32 15 -43 10 -13 14 -44
15 -96 0 -62 3 -78 15 -78 18 0 35 -31 35 -64 0 -14 4 -27 9 -31 5 -3 12 -19
16 -35 5 -23 12 -30 31 -30 18 0 24 5 24 21 0 29 -18 59 -35 59 -11 0 -15 13
-15 54 0 35 -5 60 -15 70 -10 9 -15 34 -15 70 0 30 -4 57 -9 61 -5 3 -12 19
-16 35 -4 17 -11 30 -16 30 -5 0 -9 18 -9 40 0 22 -4 40 -9 40 -5 0 -11 23
-13 50 -4 34 -11 55 -24 65 -22 17 -34 19 -34 6z"/>
<path d="M2620 3720 c-9 -6 -10 -10 -3 -10 6 0 15 5 18 10 8 12 4 12 -15 0z"/>
<path d="M7555 3714 c9 -9 19 -13 23 -10 3 4 0 11 -8 16 -24 15 -33 11 -15 -6z"/>
<path d="M2480 3710 c0 -5 5 -10 11 -10 5 0 7 5 4 10 -3 6 -8 10 -11 10 -2 0
-4 -4 -4 -10z"/>
<path d="M2546 3703 c-7 -16 13 -38 24 -26 3 3 0 8 -7 10 -7 2 -9 11 -6 19 3
8 3 14 0 14 -3 0 -8 -8 -11 -17z"/>
<path d="M7540 3675 c0 -8 8 -15 18 -14 10 0 12 3 4 6 -6 2 -10 9 -6 14 3 5 0
9 -5 9 -6 0 -11 -7 -11 -15z"/>
<path d="M7482 3654 c10 -10 20 -16 22 -13 3 3 -5 11 -17 18 -21 13 -21 12 -5
-5z"/>
<path d="M1180 3610 c0 -5 5 -10 10 -10 6 0 10 5 10 10 0 6 -4 10 -10 10 -5 0
-10 -4 -10 -10z"/>
<path d="M2645 3590 c-3 -6 1 -7 9 -4 18 7 21 14 7 14 -6 0 -13 -4 -16 -10z"/>
<path d="M2676 3554 c-11 -7 -18 -16 -15 -18 2 -2 13 2 23 10 11 7 18 16 15
18 -2 2 -13 -2 -23 -10z"/>
<path d="M2625 3530 c-3 -5 -1 -10 4 -10 6 0 11 5 11 10 0 6 -2 10 -4 10 -3 0
-8 -4 -11 -10z"/>
<path d="M2628 3483 c6 -2 18 -2 25 0 6 3 1 5 -13 5 -14 0 -19 -2 -12 -5z"/>
<path d="M7465 3470 c3 -5 14 -10 23 -10 15 0 15 2 2 10 -20 13 -33 13 -25 0z"/>
<path d="M7291 3408 c2 -2 18 -14 34 -28 l30 -25 -24 28 c-14 15 -29 27 -34
27 -6 0 -8 -1 -6 -2z"/>
<path d="M7360 3353 c0 -5 15 -17 33 -28 28 -17 30 -17 18 -1 -17 21 -51 40
-51 29z"/>
<path d="M7295 3320 c3 -5 8 -10 11 -10 2 0 4 5 4 10 0 6 -5 10 -11 10 -5 0
-7 -4 -4 -10z"/>
<path d="M7214 3285 c-6 -26 17 -65 39 -65 6 0 2 9 -8 20 -19 21 -7 28 13 8 7
-7 12 -8 12 -3 0 4 9 0 20 -10 11 -10 20 -14 20 -9 0 16 -23 34 -42 34 -10 0
-18 5 -18 11 0 6 -7 17 -15 25 -13 13 -15 12 -21 -11z"/>
<path d="M2815 3266 c-19 -14 -19 -15 -1 -35 15 -16 22 -18 33 -10 11 10 11
15 -3 30 -19 21 -12 24 18 8 16 -9 24 -7 37 7 15 17 15 17 -1 5 -12 -9 -22
-10 -37 -2 -25 14 -23 14 -46 -3z m23 -22 c14 -15 14 -16 -3 -13 -10 2 -20 10
-23 17 -5 17 6 15 26 -4z"/>
<path d="M2932 3247 c-8 -10 -6 -13 7 -13 11 0 17 6 14 13 -3 7 -6 13 -8 13
-1 0 -7 -6 -13 -13z"/>
<path d="M7160 3231 c0 -6 4 -13 10 -16 6 -3 7 1 4 9 -7 18 -14 21 -14 7z"/>
<path d="M2930 3216 c0 -2 7 -7 16 -10 8 -3 12 -2 9 4 -6 10 -25 14 -25 6z"/>
<path d="M7203 3151 c-2 -66 -1 -65 -20 -49 -19 16 -43 14 -43 -5 0 -8 4 -7
12 1 9 9 16 8 30 -5 18 -16 19 -16 25 5 3 12 10 22 17 22 6 0 4 4 -4 10 -8 5
-11 12 -7 16 4 4 13 2 19 -4 15 -15 32 -16 23 -2 -3 6 -1 10 6 10 23 0 -7 22
-33 25 -20 2 -24 -2 -25 -24z m42 9 c3 -5 2 -10 -4 -10 -5 0 -13 5 -16 10 -3
6 -2 10 4 10 5 0 13 -4 16 -10z"/>
<path d="M1050 3081 c0 -30 -4 -40 -17 -43 -16 -3 -15 -6 5 -23 12 -11 22 -27
22 -37 0 -10 7 -18 15 -18 11 0 15 -11 15 -40 0 -29 4 -40 15 -40 19 0 19 -19
0 -44 -19 -25 -19 -36 0 -36 8 0 15 8 15 17 0 15 2 14 15 -3 8 -10 15 -36 15
-56 0 -33 3 -38 23 -38 21 0 47 -36 47 -67 0 -7 7 -13 15 -13 11 0 15 -11 15
-40 0 -38 2 -40 30 -40 28 0 30 -2 30 -40 0 -32 4 -40 19 -40 15 0 19 10 23
52 5 46 3 54 -18 71 -31 24 -30 37 1 37 15 0 25 6 25 14 0 11 -14 16 -47 18
-41 3 -48 6 -51 26 -2 13 -10 22 -21 22 -12 0 -22 14 -32 43 -7 23 -19 53 -26
67 -7 14 -13 31 -13 38 0 6 -7 12 -15 12 -11 0 -15 11 -15 40 0 22 -3 40 -7
40 -14 0 -34 54 -40 108 -5 42 -9 52 -24 52 -15 0 -19 -8 -19 -39z"/>
<path d="M2993 3102 c-5 -9 -7 -25 -4 -35 6 -17 8 -17 25 2 17 19 17 19 -6 15
-22 -5 -22 -5 -5 9 10 8 14 17 10 20 -5 3 -14 -2 -20 -11z"/>
<path d="M7097 3098 c19 -21 41 -24 24 -4 -9 11 -9 15 1 19 7 2 1 4 -14 3 -25
-1 -25 -2 -11 -18z"/>
<path d="M2901 3074 c0 -11 3 -14 6 -6 3 7 2 16 -1 19 -3 4 -6 -2 -5 -13z"/>
<path d="M7140 3070 c0 -5 5 -10 11 -10 5 0 7 5 4 10 -3 6 -8 10 -11 10 -2 0
-4 -4 -4 -10z"/>
<path d="M7170 3060 c0 -19 5 -25 20 -26 22 -1 31 6 24 17 -4 6 -11 6 -20 -2
-8 -6 -17 -9 -21 -5 -3 3 -1 6 5 6 7 0 12 5 12 10 0 6 -4 10 -10 10 -5 0 -10
-4 -10 -10z"/>
<path d="M7047 3049 c7 -7 15 -10 18 -7 3 3 -2 9 -12 12 -14 6 -15 5 -6 -5z"/>
<path d="M2999 3003 c-13 -16 -12 -17 4 -4 16 13 21 21 13 21 -2 0 -10 -8 -17
-17z"/>
<path d="M3026 3003 c-6 -14 -5 -15 5 -6 7 7 10 15 7 18 -3 3 -9 -2 -12 -12z"/>
<path d="M7120 3007 c0 -7 9 -13 20 -13 11 0 20 1 20 3 0 1 -9 7 -20 13 -15 8
-20 8 -20 -3z"/>
<path d="M7122 2967 c-8 -10 -6 -13 11 -14 15 -2 18 0 8 6 -11 7 -11 9 0 14 8
3 9 6 3 6 -6 1 -16 -5 -22 -12z"/>
<path d="M8940 2930 c0 -27 5 -50 10 -50 6 0 10 23 10 50 0 28 -4 50 -10 50
-5 0 -10 -22 -10 -50z"/>
<path d="M6980 2944 c0 -6 7 -19 15 -30 8 -10 14 -14 14 -9 0 6 -6 19 -14 29
-8 11 -15 15 -15 10z"/>
<path d="M8910 2865 c0 -8 5 -15 10 -15 6 0 10 7 10 15 0 8 -4 15 -10 15 -5 0
-10 -7 -10 -15z"/>
<path d="M3395 2750 c-3 -5 -1 -10 4 -10 6 0 11 5 11 10 0 6 -2 10 -4 10 -3 0
-8 -4 -11 -10z"/>
<path d="M6703 2712 c-10 -6 -10 -12 3 -28 15 -18 15 -18 8 5 -4 17 -3 22 6
16 9 -5 11 -4 6 3 -8 14 -8 14 -23 4z"/>
<path d="M8812 2700 c-6 -11 -12 -29 -12 -40 0 -15 -7 -20 -25 -20 -18 0 -25
-5 -25 -20 0 -11 -7 -23 -15 -26 -8 -4 -15 -12 -15 -20 0 -10 13 -14 44 -14
l43 0 6 57 c4 36 12 60 21 65 19 11 21 38 3 38 -7 0 -18 -9 -25 -20z"/>
<path d="M6614 2676 c4 -11 1 -23 -6 -28 -9 -6 -5 -7 10 -3 13 4 22 2 22 -4 0
-6 9 -11 19 -11 11 0 22 -4 25 -9 3 -5 16 -11 28 -14 19 -6 19 -3 -7 17 -16
13 -35 21 -43 19 -7 -3 -12 0 -10 8 2 7 -3 13 -10 14 -7 0 -17 7 -23 15 -9 12
-10 11 -5 -4z"/>
<path d="M6746 2657 c3 -10 9 -15 12 -12 3 3 0 11 -7 18 -10 9 -11 8 -5 -6z"/>
<path d="M6650 2611 c0 -5 5 -13 10 -16 6 -3 10 -2 10 4 0 5 -4 13 -10 16 -5
3 -10 2 -10 -4z"/>
<path d="M3614 2585 c-10 -8 -14 -14 -9 -14 6 0 19 6 29 14 11 8 15 15 10 15
-6 0 -19 -7 -30 -15z"/>
<path d="M1680 2576 c0 -9 5 -16 10 -16 6 0 10 4 10 9 0 6 -4 13 -10 16 -5 3
-10 -1 -10 -9z"/>
<path d="M6688 2583 c7 -3 16 -2 19 1 4 3 -2 6 -13 5 -11 0 -14 -3 -6 -6z"/>
<path d="M6665 2560 c-3 -5 -1 -10 4 -10 6 0 11 5 11 10 0 6 -2 10 -4 10 -3 0
-8 -4 -11 -10z"/>
<path d="M6510 2536 c0 -2 8 -10 18 -17 15 -13 16 -12 3 4 -13 16 -21 21 -21
13z"/>
<path d="M3651 2503 c-1 -14 5 -23 13 -23 17 0 31 18 21 28 -3 3 -10 0 -15 -7
-6 -11 -9 -10 -13 5 -4 16 -5 16 -6 -3z"/>
<path d="M6553 2502 c2 -12 6 -24 10 -28 3 -4 4 4 2 16 -6 30 -16 40 -12 12z"/>
<path d="M1360 2495 c0 -8 5 -15 10 -15 6 0 10 -9 10 -19 0 -10 7 -21 15 -25
26 -9 17 37 -10 57 -22 15 -25 16 -25 2z"/>
<path d="M3721 2475 c-19 -32 -19 -34 -1 -23 10 7 16 16 13 22 -4 5 1 7 9 3
12 -4 14 -1 11 14 -7 25 -8 25 -32 -16z"/>
<path d="M3731 2439 c-13 -10 -19 -19 -14 -19 13 0 49 27 43 33 -3 3 -16 -3
-29 -14z"/>
<path d="M3845 2441 c-4 -13 -4 -25 -1 -28 3 -4 6 2 7 13 0 18 1 18 9 -1 6
-13 9 -15 9 -5 0 8 -3 21 -8 29 -7 11 -10 9 -16 -8z"/>
<path d="M6410 2446 c0 -8 -2 -20 -3 -28 -2 -7 -2 -10 0 -5 3 4 14 7 26 7 20
1 21 2 5 14 -10 7 -15 16 -11 19 3 4 1 7 -5 7 -7 0 -12 -6 -12 -14z"/>
<path d="M6356 2425 c5 -13 9 -13 23 -3 9 7 18 14 20 15 2 2 -8 3 -22 3 -20 0
-25 -4 -21 -15z"/>
<path d="M1420 2415 c0 -8 5 -15 10 -15 6 0 10 7 10 15 0 8 -4 15 -10 15 -5 0
-10 -7 -10 -15z"/>
<path d="M1600 2415 c0 -8 7 -15 16 -15 14 0 14 3 4 15 -7 8 -14 15 -16 15 -2
0 -4 -7 -4 -15z"/>
<path d="M6420 2400 c0 -5 5 -10 10 -10 6 0 10 5 10 10 0 6 -4 10 -10 10 -5 0
-10 -4 -10 -10z"/>
<path d="M3846 2391 c-7 -11 3 -41 14 -41 11 0 21 30 14 41 -3 5 -9 9 -14 9
-5 0 -11 -4 -14 -9z m24 -11 c0 -5 -4 -10 -10 -10 -5 0 -10 5 -10 10 0 6 5 10
10 10 6 0 10 -4 10 -10z"/>
<path d="M6370 2385 c0 -8 2 -15 4 -15 2 0 6 7 10 15 3 8 1 15 -4 15 -6 0 -10
-7 -10 -15z"/>
<path d="M8595 2367 c-11 -18 -30 -36 -43 -42 -20 -9 -22 -16 -20 -59 2 -28 8
-51 16 -54 6 -2 12 3 12 12 0 10 9 16 25 16 22 0 25 4 25 34 0 18 7 53 15 76
18 51 18 50 3 50 -7 -1 -22 -15 -33 -33z"/>
<path d="M6340 2364 c0 -8 5 -12 10 -9 6 3 10 10 10 16 0 5 -4 9 -10 9 -5 0
-10 -7 -10 -16z"/>
<path d="M6430 2370 c-9 -6 -10 -10 -3 -10 6 0 15 5 18 10 8 12 4 12 -15 0z"/>
<path d="M6375 2350 c-3 -5 1 -10 9 -10 9 0 16 5 16 10 0 6 -4 10 -9 10 -6 0
-13 -4 -16 -10z"/>
<path d="M1440 2335 c0 -8 7 -15 16 -15 14 0 14 3 4 15 -7 8 -14 15 -16 15 -2
0 -4 -7 -4 -15z"/>
<path d="M6020 2272 c0 -5 7 -9 15 -9 8 0 12 4 9 9 -3 4 -9 8 -15 8 -5 0 -9
-4 -9 -8z"/>
<path d="M4141 2214 c0 -11 3 -14 6 -6 3 7 2 16 -1 19 -3 4 -6 -2 -5 -13z"/>
<path d="M8456 2194 c-11 -28 -7 -34 24 -34 35 0 38 9 10 33 -25 21 -26 21
-34 1z"/>
<path d="M8418 2116 c-27 -20 -21 -36 13 -36 24 0 30 3 25 16 -3 9 -6 20 -6
25 0 13 -12 11 -32 -5z"/>
<path d="M8300 1935 c-10 -12 -10 -15 4 -15 9 0 16 7 16 15 0 8 -2 15 -4 15
-2 0 -9 -7 -16 -15z"/>
<path d="M8190 1800 c0 -33 3 -40 20 -40 17 0 20 7 20 40 0 33 -3 40 -20 40
-17 0 -20 -7 -20 -40z"/>
<path d="M8240 1745 c0 -8 5 -15 10 -15 6 0 10 7 10 15 0 8 -4 15 -10 15 -5 0
-10 -7 -10 -15z"/>
<path d="M8142 1700 c-21 -27 -21 -29 -5 -45 15 -16 17 -16 26 2 6 10 14 21
20 24 11 8 6 41 -8 45 -5 2 -20 -10 -33 -26z"/>
<path d="M7920 1690 c0 -5 -7 -10 -15 -10 -8 0 -15 -5 -15 -11 0 -6 6 -8 13
-5 6 3 20 9 30 12 21 8 23 24 2 24 -8 0 -15 -4 -15 -10z"/>
<path d="M7798 1515 c-42 -38 -51 -75 -18 -75 33 0 62 37 58 76 l-3 34 -37
-35z"/>
<path d="M7716 1455 c-4 -10 1 -15 14 -15 13 0 18 5 14 15 -4 8 -10 15 -14 15
-4 0 -10 -7 -14 -15z"/>
<path d="M7648 1402 c-7 -10 -21 -21 -30 -25 -10 -3 -18 -13 -18 -21 0 -8 -15
-19 -32 -26 l-33 -11 24 -20 c16 -13 38 -19 72 -19 l48 0 0 70 c-1 72 -8 84
-31 52z"/>
<path d="M2400 1319 c0 -24 36 -38 98 -39 51 0 62 3 62 16 0 14 -8 16 -59 11
-47 -5 -60 -3 -65 8 -6 18 -36 20 -36 4z"/>
<path d="M7500 1290 c0 -5 5 -10 10 -10 6 0 10 5 10 10 0 6 -4 10 -10 10 -5 0
-10 -4 -10 -10z"/>
<path d="M7420 1210 c0 -5 11 -10 25 -10 14 0 25 5 25 10 0 6 -11 10 -25 10
-14 0 -25 -4 -25 -10z"/>
<path d="M2720 1159 c0 -7 8 -18 18 -25 20 -16 62 -18 62 -4 0 6 -9 10 -19 10
-10 0 -21 7 -25 15 -6 17 -36 20 -36 4z"/>
<path d="M7273 1144 c-25 -11 -12 -24 23 -24 24 0 34 4 32 13 -5 13 -35 19
-55 11z"/>
<path d="M7180 1055 c-7 -8 -23 -15 -36 -15 -21 0 -24 -5 -24 -40 l0 -40 40 0
40 0 0 55 c0 30 -2 55 -4 55 -2 0 -9 -7 -16 -15z"/>
<path d="M3040 975 c0 -8 7 -15 16 -15 14 0 14 3 4 15 -7 8 -14 15 -16 15 -2
0 -4 -7 -4 -15z"/>
<path d="M7040 869 c0 -5 5 -7 10 -4 6 3 10 8 10 11 0 2 -4 4 -10 4 -5 0 -10
-5 -10 -11z"/>
<path d="M6127 623 c-13 -12 -7 -23 13 -23 11 0 20 7 20 15 0 15 -21 21 -33 8z"/>
<path d="M4480 520 c0 -5 18 -10 40 -10 22 0 40 5 40 10 0 6 -18 10 -40 10
-22 0 -40 -4 -40 -10z"/>
<path d="M5138 503 c12 -2 32 -2 45 0 12 2 2 4 -23 4 -25 0 -35 -2 -22 -4z"/>
<path d="M4615 470 c3 -5 10 -10 16 -10 5 0 9 5 9 10 0 6 -7 10 -16 10 -8 0
-12 -4 -9 -10z"/>
</g>
</svg>
